G04 DipTrace 3.3.1.1*
G04 BottomMask.gbs*
%MOIN*%
G04 #@! TF.FileFunction,Soldermask,Bot*
G04 #@! TF.Part,Single*
%ADD21C,0.019685*%
%ADD70C,0.332*%
%ADD72C,0.070866*%
%ADD83C,0.052874*%
%ADD87C,0.164154*%
%ADD91C,0.043307*%
%ADD97C,0.055073*%
%ADD99C,0.086573*%
%ADD113C,0.035433*%
%ADD116C,0.078774*%
%ADD119O,0.165354X0.086614*%
%ADD121C,0.086614*%
%ADD134C,0.074803*%
%ADD136R,0.074803X0.074803*%
%FSLAX26Y26*%
G04*
G70*
G90*
G75*
G01*
G04 BotMask*
%LPD*%
D87*
X782262Y1076510D3*
X1024881Y1076249D3*
D83*
X2338969Y1982335D3*
X1382719Y2857335D3*
D136*
X2145218Y1544833D3*
D134*
X2045218D3*
X1945218D3*
X1845218D3*
X1745218D3*
X1645218D3*
D70*
X1668777Y1811728D3*
D21*
X1362451Y2068700D3*
Y2018700D3*
Y1968700D3*
Y1918700D3*
Y1868700D3*
Y1824950D3*
Y1781200D3*
D121*
X1075694Y2089077D3*
D119*
X978765Y2286873D3*
D72*
X957584Y1971912D3*
Y1578211D3*
Y1656951D3*
Y1814432D3*
Y2050652D3*
Y1735692D3*
Y1893172D3*
Y2129392D3*
X859159Y1578211D3*
Y1656951D3*
Y1735692D3*
Y1814432D3*
Y1893172D3*
Y1971912D3*
Y2050652D3*
Y2129392D3*
Y2208133D3*
D121*
X1076469Y1619835D3*
D116*
X892597Y1299697D3*
X892345Y1382067D3*
Y1479802D3*
X1006201Y1200201D3*
Y1299950D3*
X1005948Y1381564D3*
X1005697Y1479549D3*
X893608Y1200455D3*
D113*
X436067Y1601370D3*
Y1760819D3*
D99*
X612366Y572867D3*
X612357Y1000025D3*
D97*
X580770Y934034D3*
X580849Y638823D3*
D116*
X435123Y1000052D3*
X435169Y572843D3*
D91*
X1980213Y3068622D3*
X1930213D3*
X1880213D3*
X1830213D3*
X1780213D3*
X1730213D3*
X1680213D3*
X1630213D3*
X1580213D3*
X1530213D3*
X1480213D3*
X1430213D3*
X1380213D3*
X1330213D3*
M02*
