G04 DipTrace 3.3.1.1*
G04 BottomSilk.gbo*
%MOIN*%
G04 #@! TF.FileFunction,Legend,Bot*
G04 #@! TF.Part,Single*
%ADD148C,0.006176*%
%ADD149C,0.009264*%
%FSLAX26Y26*%
G04*
G70*
G90*
G75*
G01*
G04 BotSilk*
%LPD*%
X2913288Y2855734D2*
D149*
Y2795446D1*
X2887422D1*
X2878800Y2798364D1*
X2875948Y2801216D1*
X2873096Y2806920D1*
Y2815542D1*
X2875948Y2821312D1*
X2878800Y2824164D1*
X2887422Y2827016D1*
X2878800Y2829934D1*
X2875948Y2832786D1*
X2873096Y2838489D1*
Y2844260D1*
X2875948Y2849963D1*
X2878800Y2852882D1*
X2887422Y2855734D1*
X2913288D1*
Y2827016D2*
X2887422D1*
X2820147Y2835638D2*
Y2795446D1*
Y2827016D2*
X2825851Y2832786D1*
X2831621Y2835638D1*
X2840177D1*
X2845947Y2832786D1*
X2851651Y2827016D1*
X2854569Y2818393D1*
Y2812690D1*
X2851651Y2804068D1*
X2845947Y2798364D1*
X2840177Y2795446D1*
X2831621D1*
X2825851Y2798364D1*
X2820147Y2804068D1*
X2770050Y2827016D2*
X2772902Y2832786D1*
X2781524Y2835638D1*
X2790146D1*
X2798768Y2832786D1*
X2801620Y2827016D1*
X2798768Y2821312D1*
X2792998Y2818393D1*
X2778672Y2815542D1*
X2772902Y2812690D1*
X2770050Y2806920D1*
Y2804068D1*
X2772902Y2798364D1*
X2781524Y2795446D1*
X2790146D1*
X2798768Y2798364D1*
X2801620Y2804068D1*
X2751523Y2818393D2*
X2717101D1*
Y2824164D1*
X2719953Y2829934D1*
X2722805Y2832786D1*
X2728575Y2835638D1*
X2737197D1*
X2742901Y2832786D1*
X2748671Y2827016D1*
X2751523Y2818393D1*
Y2812690D1*
X2748671Y2804068D1*
X2742901Y2798364D1*
X2737197Y2795446D1*
X2728575D1*
X2722805Y2798364D1*
X2717101Y2804068D1*
X2664152Y2855734D2*
Y2795446D1*
Y2827016D2*
X2669856Y2832786D1*
X2675626Y2835638D1*
X2684248D1*
X2689952Y2832786D1*
X2695722Y2827016D1*
X2698574Y2818393D1*
Y2812690D1*
X2695722Y2804068D1*
X2689952Y2798364D1*
X2684248Y2795446D1*
X2675626D1*
X2669856Y2798364D1*
X2664152Y2804068D1*
X2572978Y2835638D2*
X2578682Y2832786D1*
X2584452Y2827016D1*
X2587304Y2818393D1*
Y2812690D1*
X2584452Y2804068D1*
X2578682Y2798364D1*
X2572978Y2795446D1*
X2564356D1*
X2558586Y2798364D1*
X2552882Y2804068D1*
X2549964Y2812690D1*
Y2818393D1*
X2552882Y2827016D1*
X2558586Y2832786D1*
X2564356Y2835638D1*
X2572978D1*
X2531437D2*
Y2795446D1*
Y2824164D2*
X2522815Y2832786D1*
X2517044Y2835638D1*
X2508489D1*
X2502719Y2832786D1*
X2499867Y2824164D1*
Y2795446D1*
X2382826Y2847112D2*
X2388530Y2852882D1*
X2397152Y2855734D1*
X2408626D1*
X2417248Y2852882D1*
X2423018Y2847112D1*
Y2841408D1*
X2420100Y2835638D1*
X2417248Y2832786D1*
X2411545Y2829934D1*
X2394300Y2824164D1*
X2388530Y2821312D1*
X2385678Y2818393D1*
X2382826Y2812690D1*
Y2804068D1*
X2388530Y2798364D1*
X2397152Y2795446D1*
X2408626D1*
X2417248Y2798364D1*
X2423018Y2804068D1*
X2364299Y2855734D2*
Y2795446D1*
Y2824164D2*
X2355677Y2832786D1*
X2349907Y2835638D1*
X2341285D1*
X2335581Y2832786D1*
X2332729Y2824164D1*
Y2795446D1*
X2314202Y2835638D2*
Y2806920D1*
X2311350Y2798364D1*
X2305580Y2795446D1*
X2296958D1*
X2291254Y2798364D1*
X2282632Y2806920D1*
Y2835638D2*
Y2795446D1*
X2264105Y2835638D2*
Y2795446D1*
Y2818393D2*
X2261187Y2827016D1*
X2255483Y2832786D1*
X2249713Y2835638D1*
X2241091D1*
X2222564Y2855734D2*
X2219712Y2852882D1*
X2216794Y2855734D1*
X2219712Y2858652D1*
X2222564Y2855734D1*
X2219712Y2835638D2*
Y2795446D1*
X2198267Y2855734D2*
Y2795446D1*
X2169549Y2835638D2*
X2198267Y2806920D1*
X2186793Y2818393D2*
X2166697Y2795446D1*
X2148170Y2818393D2*
X2113748D1*
Y2824164D1*
X2116600Y2829934D1*
X2119452Y2832786D1*
X2125222Y2835638D1*
X2133844D1*
X2139548Y2832786D1*
X2145318Y2827016D1*
X2148170Y2818393D1*
Y2812690D1*
X2145318Y2804068D1*
X2139548Y2798364D1*
X2133844Y2795446D1*
X2125222D1*
X2119452Y2798364D1*
X2113748Y2804068D1*
X2095221Y2835638D2*
Y2795446D1*
Y2824164D2*
X2086599Y2832786D1*
X2080828Y2835638D1*
X2072273D1*
X2066503Y2832786D1*
X2063651Y2824164D1*
Y2795446D1*
X1986802Y2855734D2*
X1963855Y2795446D1*
X1940907Y2855734D1*
X1922380D2*
X1919528Y2852882D1*
X1916609Y2855734D1*
X1919528Y2858652D1*
X1922380Y2855734D1*
X1919528Y2835638D2*
Y2795446D1*
X1863660Y2855734D2*
Y2795446D1*
Y2827016D2*
X1869364Y2832786D1*
X1875134Y2835638D1*
X1883756D1*
X1889460Y2832786D1*
X1895230Y2827016D1*
X1898082Y2818393D1*
Y2812690D1*
X1895230Y2804068D1*
X1889460Y2798364D1*
X1883756Y2795446D1*
X1875134D1*
X1869364Y2798364D1*
X1863660Y2804068D1*
X1845133Y2818393D2*
X1810711D1*
Y2824164D1*
X1813563Y2829934D1*
X1816415Y2832786D1*
X1822185Y2835638D1*
X1830807D1*
X1836511Y2832786D1*
X1842281Y2827016D1*
X1845133Y2818393D1*
Y2812690D1*
X1842281Y2804068D1*
X1836511Y2798364D1*
X1830807Y2795446D1*
X1822185D1*
X1816415Y2798364D1*
X1810711Y2804068D1*
X1777859Y2835638D2*
X1783562Y2832786D1*
X1789332Y2827016D1*
X1792184Y2818393D1*
Y2812690D1*
X1789332Y2804068D1*
X1783562Y2798364D1*
X1777859Y2795446D1*
X1769236D1*
X1763466Y2798364D1*
X1757763Y2804068D1*
X1754844Y2812690D1*
Y2818393D1*
X1757763Y2827016D1*
X1763466Y2832786D1*
X1769236Y2835638D1*
X1777859D1*
X1677996Y2855734D2*
X1655048Y2795446D1*
X1632100Y2855734D1*
X1607803Y2855667D2*
X1576299D1*
X1593477Y2832719D1*
X1584855D1*
X1579151Y2829867D1*
X1576299Y2827016D1*
X1573381Y2818393D1*
Y2812690D1*
X1576299Y2804068D1*
X1582003Y2798297D1*
X1590625Y2795446D1*
X1599247D1*
X1607803Y2798297D1*
X1610655Y2801216D1*
X1613573Y2806920D1*
X848793Y958170D2*
D148*
X888985Y948576D1*
X848793Y939025D1*
X888985Y929474D1*
X848793Y919880D1*
Y907528D2*
X850694Y905627D1*
X848793Y903681D1*
X846847Y905627D1*
X848793Y907528D1*
X862190Y905627D2*
X888985D1*
X848793Y891330D2*
X850694Y889429D1*
X848793Y887483D1*
X846847Y889429D1*
X848793Y891330D1*
X862190Y889429D2*
X888985D1*
X848793Y836251D2*
X888985D1*
X848793Y809456D2*
X888985D1*
X867938Y836251D2*
Y809456D1*
X848793Y797105D2*
X888985D1*
Y783708D1*
X887039Y777960D1*
X883237Y774113D1*
X879390Y772212D1*
X873686Y770310D1*
X864091D1*
X858343Y772212D1*
X854541Y774113D1*
X850694Y777960D1*
X848793Y783708D1*
Y797105D1*
X888985Y727362D2*
X848793D1*
X888985Y742660D1*
X848793Y757959D1*
X888985D1*
X848793Y715010D2*
X888985D1*
X862190Y663778D2*
X888985Y652282D1*
X862190Y640830D1*
X848837Y616983D2*
X850738Y622731D1*
X856486Y626578D1*
X866037Y628479D1*
X871785D1*
X881335Y626578D1*
X887083Y622731D1*
X888985Y616983D1*
Y613180D1*
X887083Y607432D1*
X881335Y603630D1*
X871785Y601684D1*
X866037D1*
X856486Y603630D1*
X850738Y607432D1*
X848837Y613180D1*
Y616983D1*
X856486Y603630D2*
X881335Y626578D1*
X885138Y587432D2*
X887083Y589333D1*
X888985Y587432D1*
X887083Y585486D1*
X885138Y587432D1*
X848837Y569288D2*
Y548286D1*
X864136Y559737D1*
Y553989D1*
X866037Y550187D1*
X867938Y548286D1*
X873686Y546340D1*
X877489D1*
X883237Y548286D1*
X887083Y552088D1*
X888985Y557836D1*
Y563584D1*
X887083Y569288D1*
X885138Y571189D1*
X881335Y573135D1*
X917543Y955698D2*
X957735D1*
X917543Y928904D2*
X957735D1*
X936689Y955698D2*
Y928904D1*
X930941Y907002D2*
X932842Y910804D1*
X936689Y914651D1*
X942437Y916552D1*
X946239D1*
X951987Y914651D1*
X955790Y910804D1*
X957735Y907002D1*
Y901254D1*
X955790Y897407D1*
X951987Y893604D1*
X946239Y891659D1*
X942437D1*
X936689Y893604D1*
X932842Y897407D1*
X930941Y901254D1*
Y907002D1*
Y869757D2*
X932842Y873559D1*
X936689Y877406D1*
X942437Y879307D1*
X946239D1*
X951987Y877406D1*
X955790Y873559D1*
X957735Y869757D1*
Y864009D1*
X955790Y860162D1*
X951987Y856359D1*
X946239Y854414D1*
X942437D1*
X936689Y856359D1*
X932842Y860162D1*
X930941Y864009D1*
Y869757D1*
X917543Y842063D2*
X957735D1*
X930941Y822917D2*
X950086Y842063D1*
X942437Y834413D2*
X957735Y821016D1*
X930941Y808665D2*
X950086D1*
X955790Y806763D1*
X957735Y802916D1*
Y797168D1*
X955790Y793366D1*
X950086Y787618D1*
X930941D2*
X957735D1*
X930941Y775266D2*
X971133D1*
X936689D2*
X932886Y771420D1*
X930941Y767617D1*
Y761869D1*
X932886Y758022D1*
X936689Y754220D1*
X942437Y752274D1*
X946284D1*
X951987Y754220D1*
X955834Y758022D1*
X957735Y761869D1*
Y767617D1*
X955834Y771420D1*
X951987Y775266D1*
X917543Y701042D2*
X957735D1*
Y683798D1*
X955790Y678050D1*
X953889Y676149D1*
X950086Y674248D1*
X944338D1*
X940491Y676149D1*
X938590Y678050D1*
X936689Y683798D1*
X934743Y678050D1*
X932842Y676149D1*
X929039Y674248D1*
X925193D1*
X921390Y676149D1*
X919445Y678050D1*
X917543Y683798D1*
Y701042D1*
X936689D2*
Y683798D1*
X930941Y652346D2*
X932842Y656148D1*
X936689Y659995D1*
X942437Y661896D1*
X946239D1*
X951987Y659995D1*
X955790Y656148D1*
X957735Y652346D1*
Y646598D1*
X955790Y642751D1*
X951987Y638948D1*
X946239Y637003D1*
X942437D1*
X936689Y638948D1*
X932842Y642751D1*
X930941Y646598D1*
Y652346D1*
Y601703D2*
X957735D1*
X936689D2*
X932842Y605506D1*
X930941Y609353D1*
Y615057D1*
X932842Y618903D1*
X936689Y622706D1*
X942437Y624651D1*
X946239D1*
X951987Y622706D1*
X955790Y618903D1*
X957735Y615057D1*
Y609353D1*
X955790Y605506D1*
X951987Y601703D1*
X930941Y589352D2*
X957735D1*
X942437D2*
X936689Y587407D1*
X932842Y583604D1*
X930941Y579757D1*
Y574009D1*
X917543Y538710D2*
X957735D1*
X936689D2*
X932842Y542513D1*
X930941Y546359D1*
Y552107D1*
X932842Y555910D1*
X936689Y559757D1*
X942437Y561658D1*
X946239D1*
X951987Y559757D1*
X955790Y555910D1*
X957735Y552107D1*
Y546359D1*
X955790Y542513D1*
X951987Y538710D1*
M02*
