M48
INCH
T01C0.0118
T02C0.0158
T03C0.0197
T04C0.0236
T05C0.03
T06C0.039
T07C0.0394
T08C0.0433
T09C0.047
T10C0.055
T11C0.0559
T12C0.063
T13C0.0709
T14C0.1322
T15C0.332
%
T01
X+013302Y+030293
X+013802Y+030293
X+014302Y+030293
X+014802Y+030293
X+015302Y+030293
X+015802Y+030293
X+016302Y+030293
X+016802Y+030293
X+017302Y+030293
X+017802Y+030293
X+018302Y+030293
X+018802Y+030293
X+019302Y+030293
X+019802Y+030293
T02
X+020023Y+023532
X+020105Y+023027
X+020702Y+022886
X+021131Y+023006
X+020793Y+023530
X+021132Y+023831
X+022202Y+023413
X+022268Y+022784
X+021967Y+022453
X+022289Y+022134
X+021915Y+021849
X+021507Y+022383
X+020827Y+021761
X+020263Y+022159
X+019757Y+022120
X+018957Y+022039
X+018952Y+023198
X+018974Y+024022
X+018627Y+024268
X+017787Y+024428
X+017390Y+024511
X+017980Y+025109
X+017970Y+026018
X+017380Y+025828
X+017868Y+026891
X+016775Y+027139
X+015327Y+028761
X+014754Y+029155
X+014265Y+028823
X+014577Y+028511
X+017515Y+029323
X+018615Y+028625
X+019344Y+028066
X+020541Y+026879
X+021202Y+026511
X+021202Y+026073
X+021077Y+025698
X+020071Y+025876
X+020077Y+025136
X+020065Y+024380
X+021827Y+024823
X+022077Y+025386
X+022198Y+026094
X+022196Y+026800
X+022758Y+027057
X+022490Y+027343
X+021328Y+027935
X+023256Y+029008
X+025202Y+029073
X+025890Y+029073
X+026640Y+029073
X+027390Y+029073
X+028140Y+029073
X+029265Y+028073
X+028702Y+027386
X+028320Y+027576
X+028265Y+026698
X+027202Y+027636
X+026765Y+026698
X+023285Y+021543
X+022605Y+021513
X+022890Y+020323
X+021952Y+018573
X+021140Y+018448
X+020332Y+018826
X+019908Y+018041
X+018907Y+018477
X+018577Y+018698
X+018577Y+019198
X+018140Y+019948
X+019390Y+020073
X+020077Y+020636
X+017702Y+021761
X+017240Y+022200
X+017327Y+022948
X+018140Y+022948
X+016093Y+022920
X+015640Y+022761
X+015329Y+023161
X+015952Y+022261
X+015640Y+021261
X+015640Y+020761
X+015640Y+020261
X+016327Y+020073
X+018577Y+018198
X+018577Y+017698
X+018695Y+016594
X+017765Y+016386
X+016952Y+016011
X+015890Y+016323
X+020974Y+017541
X+021157Y+016183
X+015327Y+024261
X+015975Y+024774
X+011827Y+021948
X+007351Y+020901
X+006519Y+019953
X+005558Y+018196
X+007040Y+011606
X+007040Y+009169
X+005019Y+009044
X+004457Y+009044
X+004457Y+008481
X+005019Y+008481
X+005019Y+007856
X+004457Y+007856
X+004457Y+007231
X+004457Y+006669
X+005019Y+006669
X+005019Y+007231
X+007352Y+005669
X+007852Y+005544
X+008415Y+004794
X+010602Y+005481
X+010602Y+006481
X+010602Y+007481
X+010602Y+008419
X+010290Y+008731
X+009977Y+008856
T03
X+013625Y+020687
X+013625Y+020187
X+013625Y+019687
X+013625Y+019187
X+013625Y+018687
X+013625Y+018250
X+013625Y+017812
T04
X+004361Y+016014
X+004361Y+017608
X+013302Y+030686
X+013802Y+030686
X+014302Y+030686
X+014802Y+030686
X+015302Y+030686
X+015802Y+030686
X+016302Y+030686
X+016802Y+030686
X+017302Y+030686
X+017802Y+030686
X+018302Y+030686
X+018802Y+030686
X+019302Y+030686
X+019802Y+030686
T05
X+023390Y+019823
X+013827Y+028573
T06
X+005808Y+009340
X+005808Y+006388
T07
X+021452Y+015448
X+020452Y+015448
X+019452Y+015448
X+018452Y+015448
X+017452Y+015448
X+016452Y+015448
T08
X+009576Y+019719
X+009576Y+020507
X+009576Y+021294
X+008592Y+021294
X+008592Y+020507
X+008592Y+019719
X+008592Y+018932
X+008592Y+018144
X+008592Y+017357
X+008592Y+016570
X+008592Y+015782
X+009576Y+015782
X+009576Y+016570
X+009576Y+017357
X+009576Y+018144
X+009576Y+018932
X+008592Y+022081
T09
X+004351Y+010001
X+004352Y+005728
T10
X+006124Y+005729
X+006124Y+010000
T11
X+008926Y+012997
X+008923Y+013821
X+008923Y+014798
X+010057Y+014795
X+010059Y+013816
X+010062Y+013000
X+010062Y+012002
X+008936Y+012005
T12
X+010757Y+020891
X+010765Y+016198
T13
X+010181Y+022869G85X+009394Y+022869
T14
X+007823Y+010765
X+010249Y+010762
T15
X+016688Y+018117
T00
M30
