G04 DipTrace 3.3.1.1*
G04 Top.gtl*
%MOIN*%
G04 #@! TF.FileFunction,Copper,L1,Top*
G04 #@! TF.Part,Single*
%AMOUTLINE0*
4,1,4,
0.016,-0.006,
-0.016,-0.006,
-0.016,0.006,
0.016,0.006,
0.016,-0.006,
0*%
G04 #@! TA.AperFunction,Conductor*
%ADD10C,0.009843*%
%ADD13C,0.0095*%
%ADD14C,0.011*%
%ADD15C,0.007*%
G04 #@! TA.AperFunction,CopperBalancing*
%ADD16C,0.025*%
G04 #@! TA.AperFunction,Conductor*
%ADD17C,0.015*%
%ADD20C,0.00984*%
%ADD21C,0.019685*%
G04 #@! TA.AperFunction,CopperBalancing*
%ADD22C,0.007008*%
%ADD23C,0.007992*%
%ADD28R,0.045X0.045*%
%ADD29R,0.065X0.065*%
%ADD30R,0.03937X0.043307*%
%ADD31R,0.043307X0.03937*%
G04 #@! TA.AperFunction,ComponentPad*
%ADD34R,0.066929X0.066929*%
%ADD35C,0.066929*%
%ADD36R,0.011801X0.043301*%
%ADD37R,0.0906X0.122*%
%ADD39R,0.112X0.075*%
%ADD40R,0.063X0.0315*%
%ADD41R,0.0295X0.011801*%
%ADD42R,0.0295X0.015699*%
G04 #@! TA.AperFunction,ComponentPad*
%ADD43C,0.07874*%
%ADD44O,0.15748X0.07874*%
%ADD45C,0.062992*%
%ADD46C,0.0709*%
%ADD47R,0.041339X0.064961*%
G04 #@! TA.AperFunction,ComponentPad*
%ADD48C,0.027559*%
%ADD49R,0.011X0.0591*%
%ADD50R,0.0591X0.011*%
%ADD51R,0.031496X0.03937*%
%ADD53R,0.0571X0.017699*%
%ADD55R,0.061X0.0236*%
%ADD56R,0.047244X0.009055*%
G04 #@! TA.AperFunction,ComponentPad*
%ADD57C,0.078699*%
%ADD58C,0.047199*%
%ADD59R,0.055118X0.11811*%
%ADD60R,0.047244X0.027559*%
G04 #@! TA.AperFunction,ComponentPad*
%ADD61C,0.035433*%
G04 #@! TA.AperFunction,ViaPad*
%ADD62C,0.0315*%
%ADD64C,0.15628*%
%ADD66C,0.045*%
%ADD68C,0.027748*%
%ADD150OUTLINE0*%
%FSLAX26Y26*%
G04*
G70*
G90*
G75*
G01*
G04 Top*
%LPD*%
X1695219Y2026084D2*
D13*
Y2151084D1*
X1772383Y2228248D1*
X1819289D1*
X1843903D1*
X1890882Y2275227D1*
X1982184D1*
X2039927Y2332970D1*
Y2482333D1*
Y2651576D1*
X2020772Y2670731D1*
X1835925D1*
X1819017Y2687639D1*
Y2742332D1*
X1819289Y2228248D2*
Y2195552D1*
X1799316Y2175580D1*
Y2120232D1*
X1819289Y2195552D2*
X1838717Y2176125D1*
Y2120232D1*
X1819289Y2195552D2*
Y2120504D1*
X1819017Y2120232D1*
X1644707Y2152492D2*
Y2151084D1*
X1695219D1*
X1772383Y2228248D2*
X1762949D1*
X1737064Y2254133D1*
X1665517D1*
X2010465Y2302668D2*
X1982184Y2275227D1*
X1819017Y2742332D2*
D14*
Y2818930D1*
X1817608Y2820340D1*
Y2894406D1*
X1818444Y2895241D1*
X1817608Y2820340D2*
X1819387D1*
X1861535Y2862488D1*
X2113058Y2300573D2*
Y2156541D1*
X2114316Y2155282D1*
Y2120232D1*
X2113058Y2300573D2*
X2206921D1*
X2226764Y2280731D1*
Y2274453D1*
X2232423D1*
X2251848D1*
X2252467Y2273833D1*
X2287517D1*
X2326469Y2038584D2*
Y2032335D1*
X2251469D1*
X2124648D2*
D15*
Y2021652D1*
X2151467Y1994833D1*
X2276469D1*
X2295219Y2013584D1*
Y2032335D1*
X2251469D1*
X2287517Y2510030D2*
X2134020D1*
X2113185Y2489196D1*
Y2383059D1*
X2039927Y2482333D2*
D14*
X1720218D1*
X1708516Y2470631D1*
X1665517D1*
X1933026Y1706608D2*
Y1656608D1*
X1740316Y2120232D2*
D15*
X1726071D1*
X1695219Y2151084D1*
X1897816Y2742332D2*
Y2780909D1*
X1923469Y2806562D1*
X1934403D1*
X2153718Y2742332D2*
Y2772602D1*
X2132794Y2793526D1*
X1745218Y1544833D2*
D14*
X1748987D1*
X1860761Y1656608D1*
X1872228D1*
X1933026D1*
X1872228D2*
X1869483Y1659353D1*
Y1659403D1*
X2145627Y1756608D2*
X2099879D1*
X2097371Y1754100D1*
X2288969Y2032335D2*
X2320219D1*
X2326469Y2038584D1*
X2226764Y2278433D2*
X2206921Y2300573D1*
X2226764Y2278433D2*
X2228442D1*
X2232423Y2274453D1*
X2870218Y2738584D2*
Y2794183D1*
X2851850Y2812551D1*
X2826469Y2669833D2*
D3*
X2121531Y1941623D2*
X2167877D1*
X2176469Y1950215D1*
Y1994835D1*
X2276470D1*
X2288969Y2007333D1*
Y2032335D1*
X2121531Y1916024D2*
X2168089D1*
X2176469Y1924403D1*
Y1950215D1*
X2121531Y1890522D2*
X2176469D1*
Y1924403D1*
X2121531Y1890522D2*
X2096638D1*
X2084486Y1878370D1*
Y1766986D1*
X2097371Y1754100D1*
X1644707Y2152492D2*
Y2174223D1*
X1665517Y2195033D1*
X859159Y1814432D2*
D16*
Y1893172D1*
D17*
X660349D1*
X589581Y1963940D1*
X562860D1*
X1182719Y2194833D2*
Y2113583D1*
X1252602Y2043700D1*
X1312451Y2044833D1*
X1413887D1*
X1476469D1*
X1526469Y2094833D1*
Y2151084D1*
X1551469Y2176084D1*
X1613967D1*
X1637559Y2152492D1*
X1644707D1*
X1312451Y2043700D2*
D15*
Y2044833D1*
X1412451Y2043700D2*
X1413887Y2044833D1*
X1665517Y2411633D2*
Y2413584D1*
X1632719D1*
X1613969Y2432335D1*
X1578290D1*
X1534539Y2388584D1*
X2134017Y2742332D2*
X2134016Y2692768D1*
X1760017Y2742332D2*
X1760016Y2687496D1*
X1665517Y2332832D2*
X1698007D1*
X1665517D2*
X1698402D1*
X1716378Y2314856D1*
X1665517Y2332832D2*
X1631688D1*
X1615772Y2316916D1*
X1665517Y2234430D2*
X1611812D1*
X1609917Y2232535D1*
X1665517Y2214734D2*
X1609529D1*
X1608730Y2213934D1*
X1948332Y1890522D2*
Y1916024D1*
Y1967223D2*
Y1941623D1*
Y1916024D1*
X2054127Y2687866D2*
X2040395D1*
X2034264Y2693997D1*
X2005406D1*
X1996218Y2703185D1*
Y2742332D1*
X2005406Y2693997D2*
X1925079D1*
X1917417Y2701659D1*
Y2742332D1*
X1925079Y2693997D2*
X1841837D1*
X1838717Y2697118D1*
Y2742332D1*
X2055217Y2120232D2*
Y2148581D1*
X2082719Y2176084D1*
X2153718Y2120232D2*
Y2162636D1*
X2161753Y2170672D1*
X2177341D1*
X2191526Y2184857D1*
X2477850Y2812551D2*
Y2859656D1*
X2491097Y2872903D1*
X1681951Y2825646D2*
D3*
X2195218Y1857335D2*
X2126470D1*
X2113969Y1844833D1*
X2184539Y2032335D2*
X2188969D1*
X2260476Y2103843D1*
Y2151328D1*
X1751469Y2932335D2*
Y2938584D1*
X1638969D1*
X1632718Y2932333D1*
Y2840829D1*
X1647902Y2825646D1*
X1681951D1*
X1665517Y2411633D2*
X1703421D1*
X1707719Y2407335D1*
X1795219D1*
X1845219Y2457335D1*
X1987150D1*
X2006509Y2437975D1*
X1632719Y2007335D2*
X1645220Y1994833D1*
X1813969D1*
X1632718Y2840829D2*
Y2902697D1*
X1656105D1*
X1657718Y2901084D1*
X497091Y1605307D2*
D10*
Y1756882D1*
X464434Y2032837D2*
Y1920339D1*
X483185Y1901588D1*
X562860D1*
Y1895042D1*
X957584Y1735692D2*
D16*
X859159D1*
X1980213Y3029252D2*
D15*
Y3068622D1*
X778976Y918773D2*
D20*
X740777D1*
X778976Y793774D2*
X740777D1*
D15*
X718377D1*
X711289Y786686D1*
X657647D1*
X778976Y668773D2*
D20*
X740777D1*
D15*
X720825D1*
X697400Y692198D1*
X657647D1*
X740777Y918773D2*
X705877D1*
X703976Y916873D1*
X657647Y644954D2*
Y625702D1*
X685226Y598123D1*
Y572867D1*
X612366D1*
X657647Y739442D2*
X529343D1*
X501912Y766873D1*
Y785622D1*
X657647Y692198D2*
X532836D1*
X501912Y723122D1*
X1312452Y1893701D2*
X1412452D1*
D21*
X1462452D1*
X1481201Y1912450D1*
X1412452Y1893701D2*
Y1849951D1*
X1312452Y1893701D2*
Y1887451D1*
Y1893701D2*
Y1837451D1*
Y1893701D2*
X1249949D1*
X1243701Y1899950D1*
X2287517Y2569133D2*
D15*
X2239671D1*
X2238970Y2569833D1*
X2107719D1*
X440004Y1605307D2*
D10*
Y1756882D1*
Y1802157D1*
X457450Y1819604D1*
X555776D1*
X440004Y1605307D2*
Y1603887D1*
X437487Y1601370D1*
X436067D1*
X440004Y1756882D2*
X436067Y1760819D1*
X735110Y2090123D2*
X771720D1*
X789434Y2107837D1*
Y2339088D1*
X820684Y2370337D1*
X1101934D1*
X1126934Y2345337D1*
Y2151588D1*
X1151934Y2126588D1*
Y2094369D1*
X1252603Y1993700D1*
X1317624D1*
X1408931D1*
X1481585D1*
X1563969Y2076084D1*
X1412453Y1993700D2*
D15*
X1408931D1*
X1312453D2*
X1317624D1*
X2287517Y2588734D2*
X2239118D1*
X2232719Y2582335D1*
X2145218D1*
X2120218Y2607335D1*
X562860Y2032837D2*
D10*
X745682D1*
X808182Y2095337D1*
Y2332836D1*
X826933Y2351587D1*
X1095685D1*
X1108184Y2339088D1*
Y2145337D1*
X1133184Y2120337D1*
Y2085467D1*
X1274951Y1943700D1*
X1315857D1*
X1406965D1*
X1481585D1*
X1563969Y2026084D1*
X1412453Y1943700D2*
D15*
X1406965D1*
X1312453D2*
X1315857D1*
X2007718Y2063584D2*
Y2069833D1*
X2057718D1*
X2074916Y2087033D1*
Y2120232D1*
X1630213Y3029252D2*
Y3068622D1*
X2035617Y2120232D2*
Y2176457D1*
X2070218Y2211058D1*
Y2288584D1*
X1930213Y3029252D2*
Y3068622D1*
X2015917Y2120232D2*
Y2205524D1*
X2026277Y2215882D1*
X1880213Y3029252D2*
Y3068622D1*
X1996218Y2120232D2*
Y2191526D1*
X1975728Y2212016D1*
X1830213Y3029252D2*
Y3068622D1*
X740777Y958173D2*
D20*
X718181D1*
X708131Y948123D1*
X628976D1*
X616476Y935623D1*
Y912671D1*
X657647D1*
X778976Y958173D2*
X740777D1*
X778976D2*
D15*
X795276D1*
X822726Y985623D1*
X897727D1*
Y1006193D1*
X1601469Y2388584D2*
D14*
Y2372257D1*
X1621193Y2352533D1*
X1665517D1*
X2002295D1*
Y2353165D1*
X2079251Y2352980D2*
Y2341366D1*
X2038969Y2301084D1*
Y2288584D1*
X2001469Y2251084D1*
X1957461D1*
X1941088Y2234710D1*
Y2197626D1*
X1976517Y2162197D1*
Y2120232D1*
X2079251Y2352980D2*
X2188098D1*
X2208957Y2373839D1*
Y2464822D1*
X2234467Y2490332D1*
X2287517D1*
X2079251Y2352980D2*
Y2665018D1*
X2114316Y2700084D1*
Y2742332D1*
X2121531Y1967223D2*
X2096909D1*
X2070168Y1993965D1*
X2007682D1*
X1976517Y2025130D1*
Y2120232D1*
X1681951Y2758717D2*
D15*
X1689054D1*
X1750678Y2820340D1*
X1740315Y2742332D2*
Y2809978D1*
X1750678Y2820340D1*
Y2827379D1*
X1689682Y2888375D1*
Y2901084D1*
X1695217D1*
X2134016Y2120232D2*
Y2221622D1*
X2150697Y2238302D1*
X2045218Y1544833D2*
Y1577280D1*
X2039576Y1582921D1*
Y1598245D1*
X1999829Y1637992D1*
Y1772558D1*
X1965780Y1806608D1*
X1933026D1*
X1988261D1*
X1990778Y1804091D1*
X2287517Y2234430D2*
X2257948D1*
X2242664Y2249714D1*
X2196669D1*
Y2245343D1*
X1845218Y1544833D2*
X1860436D1*
X1936508Y1620906D1*
X1975689D1*
X1983961Y1629177D1*
Y1750638D1*
X1977991Y1756608D1*
X1933026D1*
X2057719Y2032335D2*
Y2038584D1*
X2084097Y2064962D1*
X2151280D1*
X2173417Y2087100D1*
Y2120232D1*
X2287517Y2608430D2*
X2215336D1*
Y2609406D1*
X2219768D1*
X2832151Y2812551D2*
Y2757806D1*
X2831986Y2757639D1*
X778976Y899073D2*
D20*
X740777D1*
X657647Y881175D2*
D15*
X699526D1*
X717425Y899073D1*
X740777D1*
X849547Y941871D2*
X822723D1*
X816475Y935623D1*
Y910623D1*
X804925Y899073D1*
X778976D1*
Y879373D2*
D20*
X740777D1*
D15*
X722726D1*
X708780Y865427D1*
X657647D1*
X835227Y866874D2*
X822728Y879373D1*
X778976D1*
X2694350Y2812551D2*
Y2739190D1*
X2628801Y2673640D1*
X2346782D1*
X2232062Y2788361D1*
X2201197D1*
X2193017Y2780181D1*
Y2742332D1*
X2635251Y2812551D2*
Y2757265D1*
X2580891Y2702906D1*
X2359416D1*
X2232083Y2830239D1*
X2117178D1*
X2074916Y2787978D1*
Y2742332D1*
X2576252Y2812551D2*
Y2754726D1*
X2551463Y2729937D1*
X2372932D1*
X2243131Y2859738D1*
X2047644D1*
X1976517Y2788609D1*
Y2742332D1*
X2517152Y2812551D2*
Y2773207D1*
X2502701Y2758756D1*
X2386012D1*
X2256584Y2888184D1*
X1959676D1*
X1878117Y2806625D1*
Y2742332D1*
X2173417D2*
Y2783232D1*
X2193684Y2803499D1*
X2238547D1*
X2353663Y2688385D1*
X2615719D1*
X2674652Y2747316D1*
Y2812551D1*
X2615651D2*
Y2758585D1*
X2573154Y2716087D1*
X2366508D1*
X2237606Y2844988D1*
X2108222D1*
X2055215Y2791982D1*
Y2742332D1*
X778976Y833175D2*
D20*
X740777D1*
X657647Y818182D2*
D15*
X705286D1*
X720278Y833175D1*
X740777D1*
X966877Y723867D2*
X921980D1*
X812673Y833175D1*
X778976D1*
Y813474D2*
D20*
X740777D1*
X657647Y802434D2*
D15*
X708289D1*
X719328Y813474D1*
X740777D1*
X966877Y704182D2*
X916667D1*
X816475Y804374D1*
Y810622D1*
X813623Y813474D1*
X778976D1*
X966877Y861663D2*
X961266D1*
X960227Y860623D1*
X1022728D1*
X1028976Y866871D1*
Y873123D1*
X2913967Y2669833D2*
Y2638584D1*
X2901469Y2626084D1*
X2338967D1*
X2336921Y2628131D1*
X2287517D1*
X778976Y774075D2*
D20*
X740777D1*
D15*
X717429D1*
X714293Y770938D1*
X657647D1*
X966877Y664812D2*
X931037D1*
X821774Y774075D1*
X778976D1*
X2287517Y2195033D2*
X2247188D1*
X2228860Y2213361D1*
X1945218Y1544833D2*
X1950762D1*
X1995520Y1500076D1*
X2188028D1*
X2200000Y1512049D1*
Y1686839D1*
X2180231Y1706608D1*
X2145627D1*
X1665517Y2372231D2*
X1867491D1*
X1897448Y2402188D1*
X1780211Y3029252D2*
Y3068622D1*
X1665517Y2391932D2*
X1827896D1*
X1862722Y2426757D1*
X1730213Y3029252D2*
Y3068622D1*
X1665517Y2431333D2*
X1709801D1*
X1715050Y2426084D1*
X1762042D1*
X1778717Y2442759D1*
X1580213Y3029252D2*
Y3068622D1*
X1665517Y2451030D2*
X1738969D1*
Y2451084D1*
X1530213Y3029252D2*
Y3068622D1*
X1665517Y2490332D2*
X1610358D1*
X1597474Y2477448D1*
X1480211Y3029252D2*
Y3068622D1*
X1532719Y2876084D2*
X1546917D1*
X1568954Y2854047D1*
Y2537988D1*
X1596912Y2510030D1*
X1665517D1*
X1430213Y3029252D2*
Y3068622D1*
X1665517Y2549432D2*
X1617793D1*
X1586454Y2580770D1*
Y2872919D1*
X1543913Y2915459D1*
X1475381D1*
X1382719Y3032335D2*
Y3066115D1*
X1380213Y3068622D1*
X1665517Y2569133D2*
X1623638D1*
X1602285Y2590486D1*
Y2883352D1*
X1540803Y2944833D1*
X1460224D1*
X1410224Y2994833D1*
X1364098D1*
X1330213Y3028719D1*
Y3029252D1*
Y3068622D1*
X778976Y754374D2*
D20*
X740777D1*
D15*
Y755112D1*
X740698Y755190D1*
X657647D1*
X966877Y645127D2*
X925722D1*
X816475Y754374D1*
X778976D1*
X2145627Y1656608D2*
Y1544833D1*
X2145218D1*
X2145627Y1656608D2*
X2103559D1*
X2028501Y1731667D1*
Y1813946D1*
X2000203Y1842244D1*
X1943609D1*
X1901469Y1884385D1*
Y2057333D1*
X1888969Y2069833D1*
X1770219D1*
X1760016Y2080035D1*
Y2120232D1*
X778976Y708173D2*
D20*
X740777D1*
D15*
X718925D1*
X703404Y723694D1*
X657647D1*
X966877Y605757D2*
X927591D1*
X825175Y708173D1*
X778976D1*
Y688472D2*
D20*
X740777D1*
D15*
X719877D1*
X700403Y707946D1*
X657647D1*
X966877Y586072D2*
X922276D1*
X819875Y688472D1*
X778976D1*
X966877Y881348D2*
X997727D1*
Y885623D1*
X1665517Y2588734D2*
X1628861D1*
X1619554Y2598041D1*
Y2947727D1*
X1680213Y3008386D1*
Y3029252D1*
Y3068622D1*
X778976Y649073D2*
D20*
X740777D1*
D15*
X721776D1*
X694399Y676450D1*
X657647D1*
X966877Y546702D2*
X949146D1*
X941476Y554371D1*
X910228D1*
X815526Y649073D1*
X778976D1*
Y629373D2*
D20*
X740777D1*
D15*
X722727D1*
X691398Y660702D1*
X657647D1*
X966877Y527017D2*
X943831D1*
X928976Y541871D1*
X897693D1*
X810192Y629373D1*
X778976D1*
X916476Y941871D2*
D10*
X922724D1*
Y960623D1*
X935224Y973123D1*
Y1048123D1*
X910226Y1073122D1*
X897727D1*
X802156Y1198123D2*
D15*
X835227D1*
Y1191871D1*
X802156Y1198123D2*
X891276D1*
X893608Y1200455D1*
X897727Y1073122D2*
D10*
Y1196336D1*
X893608Y1200455D1*
X902156Y866874D2*
X916476D1*
Y941871D1*
X1858419Y2742332D2*
D15*
Y2809051D1*
X1951247Y2901879D1*
X2264681D1*
X2392836Y2773724D1*
X2488627D1*
X2497451Y2782549D1*
Y2812551D1*
X2556551D2*
Y2764270D1*
X2536293Y2744012D1*
X2379671D1*
X2249723Y2873961D1*
X2039217D1*
X1956816Y2791559D1*
Y2742332D1*
X2287517Y2254133D2*
X2325098D1*
X2355403Y2223828D1*
Y2134448D1*
X2326469Y2105513D1*
D62*
X2002295Y2353165D3*
X1563969Y2026084D3*
Y2076084D3*
X2006509Y2437975D3*
X2007719Y2513584D3*
X2826469Y2669833D3*
X1990778Y1804091D3*
X1475381Y2915459D3*
D64*
X782262Y1076510D3*
X1024881Y1076249D3*
D62*
X1532719Y2876084D3*
D16*
X703976Y916873D3*
X1028976Y873123D3*
D62*
X1597474Y2477448D3*
X2010465Y2302668D3*
X2079251Y2352980D3*
X2113185Y2383059D3*
X2207718Y2538584D3*
X2219768Y2609406D3*
X2120218Y2651084D3*
X1738969Y2451084D3*
X2219615Y2679986D3*
X2275766Y2705715D3*
X2249003Y2734339D3*
X2831986Y2757639D3*
X1857719Y1919833D3*
X2220190Y2341265D3*
X2738969Y2907333D3*
X1869483Y1659403D3*
X2288969Y2032335D3*
X2226764Y2278433D3*
X2926467Y2807335D3*
X2097371Y1754100D3*
X2813969Y2907335D3*
X2033248Y1882602D3*
X2260476Y2151328D3*
X2113969Y1844833D3*
X2328480Y2154269D3*
X2870218Y2738584D3*
X1778717Y2442759D3*
D16*
X997727Y885623D3*
D62*
X1862722Y2426757D3*
X1857719Y1869835D3*
X1897448Y2402188D3*
X841475Y479374D3*
X785226Y554374D3*
X1857718Y1819833D3*
X1857719Y1769833D3*
X2007081Y2587605D3*
X2054127Y2687866D3*
X2132794Y2793526D3*
X445661Y666873D3*
X2007718Y2063584D3*
X1975728Y2212016D3*
X1934403Y2806562D3*
X445661Y723122D3*
X1861535Y2862488D3*
X1786778Y2689143D3*
X2228860Y2213361D3*
X2191526Y2184857D3*
X2196669Y2245343D3*
X2150697Y2238302D3*
X2082719Y2176084D3*
X2113058Y2300573D3*
X1609299Y2291993D3*
X1563969Y2276084D3*
X1532719Y2426084D3*
X1798043Y2510857D3*
X1796997Y2601810D3*
X1723954Y2219959D3*
X1677547Y2713938D3*
X2115671Y1618319D3*
X2325638Y2900773D3*
X445661Y785622D3*
X1457718Y2851084D3*
X1737972Y2582755D3*
X2026277Y2215882D3*
X2070218Y2288584D3*
X445661Y848122D3*
X1532940Y2316073D3*
X445661Y904374D3*
X501911Y666873D3*
D66*
X2338969Y1982335D3*
D62*
X1595218Y2226084D3*
X1632719Y2007335D3*
X1813969Y2294835D3*
X1895701Y2203860D3*
X1813969Y1994833D3*
X1890656Y1847703D3*
D66*
X1382719Y2857335D3*
D62*
X1938969Y2007335D3*
X501912Y723122D3*
Y785622D3*
X2195218Y1857335D3*
X2676469Y2669835D3*
X1588969Y1632333D3*
X1751469Y2932335D3*
X1732719Y2294835D3*
X2182719Y2482335D3*
X1770218Y2176084D3*
X1426469Y2882335D3*
X2720217Y2763584D3*
X1776469Y1638584D3*
X2663969Y2907335D3*
X2588969D3*
X2520219D3*
X1895218Y2319833D3*
X501912Y848122D3*
Y904374D3*
X1695218Y1601084D3*
X2107719Y2569833D3*
X2120218Y2607335D3*
X1563969Y2126084D3*
X735226Y566874D3*
X1060226Y548123D3*
Y648123D3*
Y748122D3*
Y841871D3*
X1182719Y2194833D3*
X703976Y1160622D3*
D68*
X651934Y1995337D3*
D62*
X735110Y2090123D3*
X555776Y1819604D3*
X1998941Y2994966D2*
D16*
X2036463D1*
X1677957Y2970097D2*
X2036463D1*
X1397738Y2945228D2*
X1423812D1*
X1653089D2*
X2036463D1*
X1397738Y2920360D2*
X1437269D1*
X1862797D2*
X1933907D1*
X2282031D2*
X2344026D1*
X2480076D2*
X2849528D1*
X1404411Y2895491D2*
X1442975D1*
X1878298D2*
X1908823D1*
X2307114D2*
X2344026D1*
X2480076D2*
X2849528D1*
X1425797Y2870622D2*
X1494684D1*
X2480076D2*
X2849528D1*
X1426337Y2845753D2*
X1510904D1*
X2898378Y2796016D2*
X2955206D1*
X2898413Y2771147D2*
X2955206D1*
X2720572Y2746278D2*
X2795378D1*
X2907852D2*
X2955206D1*
X2240908Y2721409D2*
X2263000D1*
X1645769Y2696541D2*
X1712106D1*
X2240908D2*
X2287869D1*
X1717789Y2671672D2*
X1797331D1*
X2124751D2*
X2235262D1*
X2662870D2*
X2683741D1*
X1717789Y2646803D2*
X1826325D1*
X2107454D2*
X2235262D1*
X1717789Y2621934D2*
X2012457D1*
X2155575D2*
X2183552D1*
X1717789Y2597066D2*
X2012457D1*
X1717789Y2572197D2*
X2012457D1*
X1717789Y2547328D2*
X2012457D1*
X1717789Y2522459D2*
X2012457D1*
X2139391Y2472722D2*
X2182009D1*
X1816828Y2447853D2*
X1831098D1*
X1894339D2*
X2012457D1*
X2139391D2*
X2180753D1*
X1929290Y2422984D2*
X2012457D1*
X2139391D2*
X2180753D1*
X1935677Y2398115D2*
X2012457D1*
X2148327D2*
X2180753D1*
X1516478Y2348378D2*
X1586476D1*
X2222356D2*
X2235262D1*
X1516478Y2323509D2*
X1613245D1*
X1717789D2*
X1978654D1*
X2221026D2*
X2235262D1*
X1516478Y2298640D2*
X1613245D1*
X1717789D2*
X1879722D1*
X1516478Y2273772D2*
X1613245D1*
X1754965D2*
X1851625D1*
X1516478Y2248903D2*
X1613245D1*
X1902339D2*
X1917148D1*
X1516478Y2224034D2*
X1613245D1*
X1877472D2*
X1912877D1*
X1516478Y2199165D2*
X1533655D1*
X1853466D2*
X1912877D1*
X2160240D2*
X2193314D1*
X1756220Y2174297D2*
X1771853D1*
X1866169D2*
X1925546D1*
X2069490D2*
X2084836D1*
X2160240D2*
X2233181D1*
X2240908Y2149428D2*
X2329207D1*
X1556668Y2124559D2*
X1602301D1*
X2240908D2*
X2284064D1*
X2240908Y2099690D2*
X2284064D1*
X2240908Y2074822D2*
X2284064D1*
X1927675Y2049953D2*
X1948297D1*
X1602420Y2025084D2*
X1650852D1*
X1806493D2*
X1875272D1*
X1927675D2*
X1948297D1*
X1591440Y2000215D2*
X1650852D1*
X1806493D2*
X1875272D1*
X1927675D2*
X1962577D1*
X1760168Y1975346D2*
X1875272D1*
X1795478Y1950478D2*
X1875272D1*
X1999587D2*
X2070266D1*
X1818587Y1925609D2*
X1875272D1*
X1999587D2*
X2070266D1*
X1834843Y1900740D2*
X1875272D1*
X1999587D2*
X2068005D1*
X1846073Y1875871D2*
X1876850D1*
X1999587D2*
X2056272D1*
X1853287Y1851003D2*
X1898812D1*
X2027469D2*
X2056272D1*
X2112694D2*
X2198983D1*
X1856911Y1826134D2*
X1879829D1*
X1857198Y1801265D2*
X1879829D1*
X1854112Y1776396D2*
X1879829D1*
X1847474Y1751528D2*
X1879829D1*
X1836924Y1726659D2*
X1879829D1*
X1821566Y1701790D2*
X1879829D1*
X1799748Y1676921D2*
X1835584D1*
X2026033D2*
X2047228D1*
X1767058Y1652052D2*
X1817354D1*
X2026033D2*
X2072097D1*
X1578953Y1627184D2*
X1641450D1*
X1696114D2*
X1792487D1*
X2046667D2*
X2092407D1*
X1578953Y1602315D2*
X1767619D1*
X2065434D2*
X2119213D1*
X1578953Y1577446D2*
X1600076D1*
X1578953Y1527709D2*
X1591857D1*
X1578953Y1502840D2*
X1609298D1*
X1681151D2*
X1709307D1*
X1781160D2*
X1809281D1*
X1881133D2*
X1909290D1*
X2782946Y2722542D2*
X2823591Y2722675D1*
X2818224Y2724417D1*
X2813197Y2726979D1*
X2808633Y2730295D1*
X2804642Y2734286D1*
X2801325Y2738850D1*
X2798764Y2743878D1*
X2797021Y2749244D1*
X2796138Y2754818D1*
Y2760461D1*
X2797021Y2766034D1*
X2798462Y2770583D1*
X2759861Y2770692D1*
X2718063D1*
X2717986Y2737331D1*
X2716899Y2731864D1*
X2714566Y2726803D1*
X2712374Y2723787D1*
X2711982Y2722542D1*
X2782946D1*
X1653361Y2043701D2*
X1604814D1*
Y2146047D1*
X1595596Y2148375D1*
X1562978D1*
X1554188Y2139617D1*
X1554177Y2110714D1*
X1561147Y2111932D1*
X1566790D1*
X1572364Y2111049D1*
X1577728Y2109306D1*
X1582757Y2106744D1*
X1587322Y2103428D1*
X1591312Y2099437D1*
X1594629Y2094873D1*
X1597190Y2089845D1*
X1598933Y2084479D1*
X1599816Y2078906D1*
Y2073262D1*
X1598933Y2067689D1*
X1597190Y2062323D1*
X1594629Y2057295D1*
X1591312Y2052731D1*
X1589807Y2051102D1*
X1593059Y2047220D1*
X1596008Y2042409D1*
X1598167Y2037196D1*
X1599484Y2031709D1*
X1599927Y2026084D1*
X1599484Y2020459D1*
X1598167Y2014972D1*
X1596008Y2009759D1*
X1593059Y2004948D1*
X1589395Y2000657D1*
X1585105Y1996993D1*
X1580294Y1994045D1*
X1575079Y1991886D1*
X1572807Y1991173D1*
X1574626Y1988866D1*
X1575857Y1986197D1*
X1576430Y1983315D1*
X1576469Y1982331D1*
X1584496Y1977772D1*
X1601261Y1985266D1*
X1618685Y1991073D1*
X1636594Y1995135D1*
X1653356Y1997266D1*
X1653357Y2043713D1*
X1568793Y2428478D2*
X1615765D1*
X1615759Y2446496D1*
X1611235Y2444226D1*
X1605869Y2442483D1*
X1600295Y2441600D1*
X1594652D1*
X1589079Y2442483D1*
X1583713Y2444226D1*
X1578685Y2446787D1*
X1574121Y2450104D1*
X1570130Y2454094D1*
X1566812Y2458659D1*
X1563966Y2464463D1*
X1563815Y2442879D1*
X1563017Y2440051D1*
X1561581Y2437487D1*
X1559587Y2435329D1*
X1557143Y2433697D1*
X1554387Y2432680D1*
X1551465Y2432335D1*
X1513970D1*
X1514724Y2428478D1*
X1568793D1*
X1588680Y2348690D2*
X1513970D1*
X1513969Y2177748D1*
X1533472Y2197154D1*
X1536991Y2199710D1*
X1540865Y2201684D1*
X1545000Y2203028D1*
X1549294Y2203707D1*
X1613976Y2203793D1*
X1615759Y2206070D1*
Y2327390D1*
X1611353Y2328781D1*
X1607759Y2330613D1*
X1604496Y2332984D1*
X1588678Y2348690D1*
X1731176Y2935135D2*
X1860306D1*
Y2898425D1*
X1867160Y2898004D1*
X1872647Y2896686D1*
X1877861Y2894528D1*
X1882672Y2891579D1*
X1886962Y2887915D1*
X1890626Y2883625D1*
X1893912Y2878081D1*
X1935849Y2919908D1*
X1940483Y2923004D1*
X1945713Y2924933D1*
X1951247Y2925588D1*
X2266541Y2925514D1*
X2272008Y2924428D1*
X2277070Y2922094D1*
X2281446Y2918644D1*
X2346530Y2853560D1*
X2346545Y2932340D1*
X2049513Y2932488D1*
X2046685Y2933285D1*
X2044121Y2934722D1*
X2041963Y2936715D1*
X2040331Y2939159D1*
X2039314Y2941916D1*
X2038969Y2944837D1*
Y3019867D1*
X2016983Y3019833D1*
X2014589Y3013235D1*
X2011908Y3008425D1*
X2008558Y3004055D1*
X2004610Y3000215D1*
X2000147Y2996988D1*
X1995265Y2994442D1*
X1990064Y2992629D1*
X1984657Y2991588D1*
X1979156Y2991341D1*
X1977228Y2991446D1*
X1977227Y2987827D1*
X1693203D1*
X1646356Y2941000D1*
X1731172Y2940978D1*
Y2935129D1*
X2238421Y2072228D2*
X2286577D1*
X2286575Y2147375D1*
X2331681D1*
X2331694Y2169291D1*
X2238446Y2169324D1*
X2232940Y2169991D1*
X2237761D1*
X2236424Y2173908D1*
X2231785Y2177009D1*
X2223234Y2177845D1*
X2217748Y2179163D1*
X2212534Y2181322D1*
X2207723Y2184270D1*
X2203433Y2187934D1*
X2199769Y2192224D1*
X2196820Y2197035D1*
X2194661Y2202249D1*
X2193344Y2207736D1*
X2193127Y2209564D1*
X2188274Y2210378D1*
X2182909Y2212121D1*
X2177836Y2214714D1*
X2174050Y2210958D1*
X2169486Y2207642D1*
X2164458Y2205080D1*
X2159092Y2203337D1*
X2157718Y2203063D1*
X2157726Y2169984D1*
X2218726Y2169955D1*
X2232940Y2169991D1*
X2238425Y2169308D1*
Y2072238D1*
X1804010Y2046119D2*
Y1986190D1*
X1733871D1*
X1744416Y1981882D1*
X1760811Y1973602D1*
X1776310Y1963749D1*
X1790761Y1952417D1*
X1804028Y1939717D1*
X1815978Y1925770D1*
X1826495Y1910717D1*
X1835479Y1894698D1*
X1842841Y1877873D1*
X1848510Y1860404D1*
X1852432Y1842463D1*
X1854566Y1824222D1*
X1854986Y1811728D1*
X1854080Y1793386D1*
X1851371Y1775220D1*
X1846887Y1757412D1*
X1840671Y1740131D1*
X1832782Y1723546D1*
X1823298Y1707819D1*
X1812308Y1693104D1*
X1799927Y1679541D1*
X1786268Y1667265D1*
X1771465Y1656394D1*
X1755664Y1647034D1*
X1739018Y1639276D1*
X1721689Y1633196D1*
X1703844Y1628852D1*
X1685659Y1626286D1*
X1667310Y1625525D1*
X1648974Y1626576D1*
X1630832Y1629427D1*
X1613058Y1634051D1*
X1595827Y1640404D1*
X1579304Y1648424D1*
X1576482Y1650063D1*
X1576469Y1488604D1*
X1973514Y1488584D1*
X1966500Y1495567D1*
X1961803Y1493787D1*
X1953614Y1491822D1*
X1945218Y1491160D1*
X1936822Y1491822D1*
X1928633Y1493787D1*
X1920850Y1497010D1*
X1913669Y1501411D1*
X1907264Y1506881D1*
X1901795Y1513285D1*
X1897395Y1520466D1*
X1895238Y1525360D1*
X1893041Y1520466D1*
X1888640Y1513285D1*
X1883171Y1506881D1*
X1876766Y1501411D1*
X1869585Y1497010D1*
X1861803Y1493787D1*
X1853614Y1491822D1*
X1845218Y1491160D1*
X1836822Y1491822D1*
X1828633Y1493787D1*
X1820850Y1497010D1*
X1813669Y1501411D1*
X1807265Y1506881D1*
X1801795Y1513285D1*
X1797395Y1520466D1*
X1795238Y1525360D1*
X1793041Y1520466D1*
X1788640Y1513285D1*
X1783171Y1506881D1*
X1776766Y1501411D1*
X1769585Y1497010D1*
X1761803Y1493787D1*
X1753614Y1491822D1*
X1745218Y1491160D1*
X1736822Y1491822D1*
X1728633Y1493787D1*
X1720850Y1497010D1*
X1713669Y1501411D1*
X1707265Y1506881D1*
X1701795Y1513285D1*
X1697395Y1520466D1*
X1695238Y1525360D1*
X1691970Y1518470D1*
X1687934Y1512335D1*
X1683098Y1506808D1*
X1677554Y1501993D1*
X1671403Y1497982D1*
X1664762Y1494845D1*
X1657757Y1492646D1*
X1650516Y1491423D1*
X1643176Y1491199D1*
X1635874Y1491979D1*
X1628748Y1493749D1*
X1621929Y1496476D1*
X1615547Y1500108D1*
X1609719Y1504576D1*
X1604556Y1509798D1*
X1600155Y1515676D1*
X1596597Y1522100D1*
X1593949Y1528949D1*
X1592261Y1536096D1*
X1591563Y1543406D1*
X1591871Y1550743D1*
X1593177Y1557969D1*
X1595455Y1564949D1*
X1598668Y1571554D1*
X1602751Y1577657D1*
X1607629Y1583146D1*
X1613210Y1587919D1*
X1619391Y1591885D1*
X1626055Y1594969D1*
X1633077Y1597115D1*
X1640327Y1598283D1*
X1647668Y1598450D1*
X1654965Y1597614D1*
X1662077Y1595790D1*
X1668875Y1593012D1*
X1675230Y1589332D1*
X1681022Y1584819D1*
X1686146Y1579558D1*
X1690501Y1573646D1*
X1694009Y1567196D1*
X1695217Y1564332D1*
X1697395Y1569201D1*
X1701795Y1576382D1*
X1707265Y1582786D1*
X1713669Y1588256D1*
X1720850Y1592656D1*
X1728633Y1595879D1*
X1736822Y1597845D1*
X1745218Y1598507D1*
X1753614Y1597845D1*
X1761803Y1595879D1*
X1763287Y1595491D1*
X1834209Y1666411D1*
X1836261Y1673164D1*
X1838823Y1678192D1*
X1842139Y1682756D1*
X1846130Y1686747D1*
X1850694Y1690063D1*
X1855722Y1692625D1*
X1861088Y1694367D1*
X1866661Y1695251D1*
X1872304D1*
X1877878Y1694367D1*
X1882323Y1692965D1*
X1882318Y1838615D1*
X1913717D1*
X1883440Y1868987D1*
X1880344Y1873621D1*
X1878415Y1878850D1*
X1877760Y1884392D1*
Y2046114D1*
X1804030Y2046125D1*
X1714633Y2716854D2*
X1643264D1*
X1643318Y2693239D1*
X1714588D1*
X1720093Y2692573D1*
X1715270D1*
X1715276Y2582722D1*
X1715240Y2523723D1*
X1715276Y2507563D1*
X1720226Y2508042D1*
X2014934D1*
X2014967Y2641264D1*
X2002399Y2645772D1*
X1833967Y2645849D1*
X1830098Y2646462D1*
X1826374Y2647672D1*
X1822885Y2649450D1*
X1819715Y2651752D1*
X1800038Y2671429D1*
X1797736Y2674598D1*
X1795958Y2678088D1*
X1794748Y2681812D1*
X1794135Y2685681D1*
X1794058Y2692555D1*
X1753909Y2692609D1*
X1720093Y2692573D1*
X1714608Y2693255D1*
Y2716867D1*
X2100731Y1598507D2*
X2121723D1*
X2121802Y1624618D1*
X2094919Y1624598D1*
Y1634539D1*
X2091172Y1636392D1*
X2086795Y1639843D1*
X2023538Y1703100D1*
Y1647789D1*
X2057605Y1613643D1*
X2060701Y1609009D1*
X2062630Y1603780D1*
X2063285Y1598245D1*
Y1595385D1*
X2069585Y1592656D1*
X2076766Y1588256D1*
X2083171Y1582786D1*
X2088640Y1576382D1*
X2091537Y1571886D1*
X2091545Y1598507D1*
X2100731D1*
X2768479Y2854409D2*
X2852049D1*
X2852043Y2932340D1*
X2477566Y2932333D1*
X2477562Y2854406D1*
X2768479Y2854409D1*
X2957719Y2798241D2*
X2895609Y2798206D1*
X2895927Y2794176D1*
Y2763718D1*
X2899308Y2759720D1*
X2902257Y2754909D1*
X2904416Y2749696D1*
X2905734Y2744209D1*
X2906176Y2738584D1*
X2905734Y2732959D1*
X2904416Y2727472D1*
X2902391Y2722550D1*
X2957753Y2722542D1*
X2957719Y2798274D1*
X2451747Y2798241D2*
X2401853D1*
X2411209Y2797433D1*
X2451722D1*
X2686260Y2649786D2*
Y2697570D1*
X2644198Y2655612D1*
X2639564Y2652516D1*
X2634335Y2650587D1*
X2628801Y2649932D1*
X2476764Y2649793D1*
X2686291D1*
X1981444Y2323885D2*
X1977217Y2327417D1*
X1715240Y2326824D1*
X1715276Y2279084D1*
X1739022Y2279014D1*
X1742891Y2278402D1*
X1746615Y2277192D1*
X1750105Y2275413D1*
X1753274Y2273112D1*
X1773312Y2253182D1*
X1833534Y2253207D1*
X1874672Y2294206D1*
X1877841Y2296508D1*
X1881331Y2298286D1*
X1885054Y2299496D1*
X1888924Y2300109D1*
X1971871Y2300186D1*
X1974617Y2305490D1*
X1975500Y2311063D1*
X1977243Y2316429D1*
X1979804Y2321457D1*
X1981434Y2323882D1*
X1977119Y2378824D2*
X1981159Y2382256D1*
X1985970Y2385205D1*
X1991184Y2387364D1*
X1996671Y2388681D1*
X2002295Y2389123D1*
X2007920Y2388681D1*
X2013407Y2387364D1*
X2014970Y2386787D1*
X2014967Y2456591D1*
X1882718Y2456625D1*
X1886075Y2454101D1*
X1890066Y2450110D1*
X1893381Y2445546D1*
X1895944Y2440518D1*
X1896818Y2438148D1*
X1903072Y2437703D1*
X1908559Y2436386D1*
X1913773Y2434227D1*
X1918584Y2431278D1*
X1922874Y2427614D1*
X1926538Y2423324D1*
X1929487Y2418513D1*
X1931646Y2413299D1*
X1932963Y2407812D1*
X1933406Y2402188D1*
X1932963Y2396563D1*
X1931646Y2391076D1*
X1929487Y2385862D1*
X1926538Y2381051D1*
X1924693Y2378730D1*
X1977122Y2378827D1*
X1498887Y2888259D2*
X1494169Y2884799D1*
X1489142Y2882238D1*
X1483776Y2880495D1*
X1478202Y2879612D1*
X1472559D1*
X1466986Y2880495D1*
X1461619Y2882238D1*
X1456591Y2884799D1*
X1452028Y2888115D1*
X1448037Y2892106D1*
X1444720Y2896671D1*
X1442159Y2901698D1*
X1440416Y2907064D1*
X1439533Y2912638D1*
Y2918281D1*
X1440416Y2923854D1*
X1442210Y2929331D1*
X1400402Y2971127D1*
X1395219Y2968030D1*
Y2898164D1*
X1402109Y2895388D1*
X1407823Y2891887D1*
X1412919Y2887534D1*
X1417272Y2882438D1*
X1420773Y2876724D1*
X1423336Y2870533D1*
X1424902Y2864016D1*
X1425428Y2857335D1*
X1424902Y2850654D1*
X1423336Y2844136D1*
X1421063Y2838576D1*
X1545239Y2838584D1*
X1545245Y2842394D1*
X1541114Y2841119D1*
X1535541Y2840236D1*
X1529898D1*
X1524324Y2841119D1*
X1518958Y2842862D1*
X1513930Y2845424D1*
X1509366Y2848740D1*
X1505375Y2852731D1*
X1502059Y2857295D1*
X1499497Y2862323D1*
X1497755Y2867689D1*
X1496871Y2873262D1*
Y2878906D1*
X1497755Y2884479D1*
X1498920Y2888282D1*
X2149033Y2380238D2*
X2148850Y2378693D1*
X2177466Y2378689D1*
X2183241Y2384480D1*
X2183327Y2466839D1*
X2183958Y2470823D1*
X2185205Y2474660D1*
X2187037Y2478255D1*
X2189408Y2481518D1*
X2194102Y2486324D1*
X2143873Y2486322D1*
X2136904Y2479386D1*
X2136894Y2410071D1*
X2140529Y2406412D1*
X2143845Y2401848D1*
X2146407Y2396820D1*
X2148148Y2391454D1*
X2149033Y2385881D1*
Y2380238D1*
X2229573Y2314281D2*
X2235159Y2313398D1*
X2237759Y2312665D1*
X2237794Y2417640D1*
X2237765Y2457042D1*
X2234665Y2446449D1*
X2234587Y2371822D1*
X2233955Y2367837D1*
X2232709Y2364000D1*
X2230877Y2360406D1*
X2228505Y2357142D1*
X2204795Y2333432D1*
X2201530Y2331060D1*
X2197937Y2329228D1*
X2194100Y2327982D1*
X2190115Y2327350D1*
X2137178Y2327272D1*
X2140617Y2326282D1*
X2208938Y2326203D1*
X2212923Y2325572D1*
X2216760Y2324325D1*
X2220354Y2322493D1*
X2223618Y2320122D1*
X2229592Y2314261D1*
X2094913Y1718238D2*
X2088976Y1719135D1*
X2083609Y1720878D1*
X2078583Y1723440D1*
X2074018Y1726756D1*
X2070028Y1730747D1*
X2066711Y1735311D1*
X2064150Y1740339D1*
X2062407Y1745705D1*
X2061524Y1751278D1*
X2061469Y1755521D1*
X2059487Y1760984D1*
X2058856Y1764969D1*
X2058777Y1878370D1*
X2059093Y1882392D1*
X2060035Y1886315D1*
X2061579Y1890042D1*
X2063686Y1893482D1*
X2068738Y1898979D1*
X2072772Y1903014D1*
X2072773Y1954995D1*
X2059522Y1968252D1*
X2005665Y1968335D1*
X2001681Y1968966D1*
X1997837Y1970217D1*
X1997091Y1968844D1*
Y1865948D1*
X2003912Y1865661D1*
X2009277Y1864148D1*
X2014139Y1861425D1*
X2016972Y1859004D1*
X2046530Y1829344D1*
X2049626Y1824710D1*
X2051555Y1819480D1*
X2052210Y1813938D1*
Y1741496D1*
X2094923Y1698774D1*
X2094919Y1718198D1*
X1814564Y2439937D2*
X1813681Y2434364D1*
X1811938Y2428997D1*
X1809377Y2423970D1*
X1806060Y2419406D1*
X1802322Y2415647D1*
X1818060Y2415640D1*
X1826839Y2424403D1*
X1826874Y2429579D1*
X1827757Y2435152D1*
X1829500Y2440518D1*
X1832062Y2445546D1*
X1835378Y2450110D1*
X1839369Y2454101D1*
X1842751Y2456626D1*
X1811938Y2456520D1*
X1813681Y2451154D1*
X1814564Y2445580D1*
Y2439937D1*
X2134740Y2546131D2*
X2131072Y2542490D1*
X2126508Y2539173D1*
X2121480Y2536612D1*
X2116114Y2534869D1*
X2110541Y2533986D1*
X2104953Y2533983D1*
X2104959Y2514484D1*
X2118621Y2528059D1*
X2123256Y2531155D1*
X2128486Y2533084D1*
X2134028Y2533739D1*
X2237761D1*
X2237759Y2545469D1*
X2234129Y2546081D1*
X2134726Y2546125D1*
X1749451Y2169991D2*
X1774390D1*
X1774434Y2177538D1*
X1775047Y2181407D1*
X1776257Y2185131D1*
X1778035Y2188621D1*
X1780337Y2191790D1*
X1791741Y2203302D1*
X1782698Y2203266D1*
X1749408Y2169976D1*
X1863676Y2169991D2*
X1923525D1*
X1932356Y2170001D1*
X1921539Y2180929D1*
X1919168Y2184193D1*
X1917336Y2187787D1*
X1916089Y2191625D1*
X1915458Y2195609D1*
Y2236727D1*
X1916089Y2240711D1*
X1917336Y2244549D1*
X1919168Y2248143D1*
X1920294Y2249827D1*
X1917879Y2250268D1*
X1901193D1*
X1860113Y2209269D1*
X1856944Y2206967D1*
X1853454Y2205189D1*
X1849730Y2203979D1*
X1847799Y2203596D1*
X1849929Y2200210D1*
X1857696Y2192335D1*
X1859997Y2189165D1*
X1861774Y2185676D1*
X1862986Y2181951D1*
X1863598Y2178083D1*
X1863676Y2169988D1*
X1931142Y2070474D2*
X1921238D1*
X1923373Y2066407D1*
X1924886Y2061042D1*
X1925177Y2057325D1*
X1925295Y1996281D1*
X1969009D1*
X1956969Y2008433D1*
X1954597Y2011697D1*
X1952765Y2015291D1*
X1951518Y2019129D1*
X1950887Y2023113D1*
X1950808Y2070451D1*
X1931108Y2070509D1*
X2062686Y2169991D2*
X2087316D1*
X2087349Y2194685D1*
X2062699Y2170010D1*
X2049239Y2692573D2*
X2032829D1*
X2036982Y2689710D1*
X2054566Y2672234D1*
X2056344Y2676690D1*
X2058451Y2680130D1*
X2061072Y2683197D1*
X2070434Y2692560D1*
X2049209Y2692609D1*
X2187041Y2692573D2*
X2138913D1*
X2137223Y2688412D1*
X2135115Y2684972D1*
X2132490Y2681900D1*
X2104965Y2654374D1*
Y2639869D1*
X2109106Y2641533D1*
X2114593Y2642850D1*
X2120218Y2643293D1*
X2125843Y2642850D1*
X2131329Y2641533D1*
X2136543Y2639374D1*
X2141354Y2636425D1*
X2145644Y2632761D1*
X2149308Y2628471D1*
X2152257Y2623660D1*
X2154416Y2618446D1*
X2155734Y2612959D1*
X2156177Y2607335D1*
X2156126Y2606045D1*
X2183983Y2606047D1*
X2183920Y2612227D1*
X2184803Y2617801D1*
X2186546Y2623167D1*
X2189108Y2628194D1*
X2192424Y2632759D1*
X2196415Y2636749D1*
X2200979Y2640066D1*
X2206005Y2642627D1*
X2211373Y2644370D1*
X2216946Y2645253D1*
X2222589D1*
X2228163Y2644370D1*
X2233529Y2642627D1*
X2237757Y2640513D1*
X2237759Y2692575D1*
X2238425Y2700227D1*
Y2693261D1*
X2293630Y2693239D1*
X2238444Y2748450D1*
X2238425Y2700227D1*
X2237744Y2692573D1*
X2187008Y2692609D1*
X2337276Y2287552D2*
X2337486Y2274348D1*
X2341864Y2270898D1*
X2351480Y2261281D1*
X2351469Y2602378D1*
X2337239Y2602423D1*
Y2543424D1*
Y2484322D1*
Y2425322D1*
X2337276Y2326824D1*
X2337239Y2287522D1*
X1715276Y2208727D2*
Y2206430D1*
X1732308Y2223591D1*
X1726701Y2229198D1*
X1715282Y2229175D1*
X1715269Y2208722D1*
X2170290Y1864786D2*
Y1861463D1*
X2110184D1*
X2110194Y1838646D1*
X2196336Y1838615D1*
X2196301Y1724598D1*
X2197000Y1723367D1*
X2201469Y1724115D1*
X2201466Y1884521D1*
X2200220Y1880684D1*
X2198388Y1877089D1*
X2196017Y1873825D1*
X2193165Y1870974D1*
X2189902Y1868602D1*
X2186307Y1866770D1*
X2182469Y1865524D1*
X2178486Y1864892D1*
X2176461Y1864814D1*
X1644707Y2085563D2*
D22*
Y2043736D1*
X1604849Y2085563D2*
X1644707D1*
X1534539Y2428442D2*
Y2348726D1*
X1751514Y2935100D2*
Y2895241D1*
X1762147Y2026084D2*
Y1986226D1*
Y2026084D2*
X1803975D1*
X1645218Y1598471D2*
Y1491196D1*
X1591580Y1544833D2*
X1645218D1*
X2792751Y2854374D2*
Y2812551D1*
X2714051D2*
Y2770727D1*
X2654951Y2854374D2*
Y2812551D1*
X2595951Y2854374D2*
Y2812551D1*
X2536850Y2854374D2*
Y2812551D1*
X2917551Y2879450D2*
Y2798277D1*
X2852077Y2879450D2*
X2917551D1*
X2412052D2*
Y2798277D1*
X2346579Y2879450D2*
X2477525D1*
X2738969Y2722505D2*
Y2669833D1*
X2686297D2*
X2738969D1*
X2055215Y2169954D2*
Y2120232D1*
X2153718Y2169955D2*
Y2120232D1*
X1760017Y2742332D2*
Y2692609D1*
X2237795Y2332832D2*
X2337239D1*
X2237794Y2431333D2*
X2337239D1*
X2287517Y2549432D2*
X2337239D1*
X2237794Y2647833D2*
X2287517D1*
X1615795Y2214734D2*
X1715240D1*
X1615795Y2234430D2*
X1715240D1*
X1665517Y2332832D2*
X1715240D1*
X1665517Y2529731D2*
X1715240D1*
X1657718Y2940941D2*
Y2901084D1*
X1948332Y1996245D2*
Y1967223D1*
Y1941623D2*
X1997055D1*
X1948332Y1916024D2*
X1997055D1*
X1948332Y1890522D2*
X1997055D1*
X2145627Y1838580D2*
Y1806608D1*
X2196301D1*
X1980213Y3029252D2*
Y2991362D1*
Y3029252D2*
X2018102D1*
X2015628Y2999723D2*
D16*
X2028606D1*
X1691594Y2974854D2*
X2028606D1*
X1666726Y2949986D2*
X2028606D1*
X1405597Y2925117D2*
X1431744D1*
X1869077D2*
X1929781D1*
X1408862Y2900248D2*
X1433467D1*
X1882964D2*
X1904698D1*
X2311242D2*
X2337748D1*
X2486357D2*
X2843249D1*
X1430752Y2875379D2*
X1459555D1*
X2486357D2*
X2843249D1*
X1433730Y2850511D2*
X1496587D1*
X2904695Y2775904D2*
X2947349D1*
X2726853Y2751035D2*
X2787772D1*
X2913091D2*
X2947349D1*
X1652049Y2701298D2*
X1705828D1*
X2247225D2*
X2274197D1*
X1724069Y2676429D2*
X1787357D1*
X2138388D2*
X2228983D1*
X1724069Y2651560D2*
X1808421D1*
X2113735D2*
X2228983D1*
X1724069Y2626692D2*
X2006178D1*
X2160277D2*
X2178709D1*
X1724069Y2601823D2*
X2006178D1*
X1724069Y2576954D2*
X2006178D1*
X1724069Y2552085D2*
X2006178D1*
X1724069Y2527217D2*
X2006178D1*
X2146390Y2477479D2*
X2177059D1*
X2145672Y2452610D2*
X2174475D1*
X1933597Y2427741D2*
X2006178D1*
X2145672D2*
X2174475D1*
X1942173Y2402873D2*
X2006178D1*
X2152993D2*
X2174475D1*
X1524338Y2328266D2*
X1597852D1*
X842107Y2303398D2*
X873135D1*
X1524338D2*
X1606967D1*
X1724069D2*
X1874878D1*
X842107Y2278529D2*
X871556D1*
X1524338D2*
X1606967D1*
X1759092D2*
X1847498D1*
X1524338Y2253660D2*
X1606967D1*
X1051707Y2228791D2*
X1074266D1*
X1524338D2*
X1606967D1*
X1891146D2*
X1906600D1*
X919510Y2203923D2*
X1074266D1*
X1865991D2*
X1906600D1*
X911830Y2179054D2*
X925131D1*
X990022D2*
X1074266D1*
X1872307D2*
X1912521D1*
X2166521D2*
X2201711D1*
X1012521Y2154185D2*
X1063250D1*
X2247225D2*
X2322928D1*
X1562949Y2129316D2*
X1596022D1*
X2247225D2*
X2277786D1*
X2247225Y2104448D2*
X2277786D1*
X2247225Y2079579D2*
X2277786D1*
X789609Y2029841D2*
X802551D1*
X1014208D2*
X1044410D1*
X1106969D2*
X1141872D1*
X1608558D2*
X1644573D1*
X1812811D2*
X1868993D1*
X762696Y2004972D2*
X809010D1*
X1007713D2*
X1166740D1*
X1603067D2*
X1644573D1*
X1812811D2*
X1868993D1*
X1933956D2*
X1949158D1*
X624003Y1980104D2*
X799250D1*
X1017473D2*
X1191607D1*
X1812811D2*
X1868993D1*
X648871Y1955235D2*
X801116D1*
X1015607D2*
X1216475D1*
X1799569D2*
X1868993D1*
X2005867D2*
X2061153D1*
X430588Y1930366D2*
X510238D1*
X673739D2*
X812168D1*
X1004555D2*
X1241343D1*
X1822858D2*
X1868993D1*
X2005867D2*
X2063988D1*
X430588Y1905497D2*
X510238D1*
X1016756D2*
X1251964D1*
X1472951D2*
X1498166D1*
X1839401D2*
X1868993D1*
X2005867D2*
X2063880D1*
X430588Y1880629D2*
X510238D1*
X1016684D2*
X1251964D1*
X1472951D2*
X1486539D1*
X1851027D2*
X1869208D1*
X2005867D2*
X2050065D1*
X430588Y1855760D2*
X510238D1*
X615463D2*
X812347D1*
X1004376D2*
X1251964D1*
X1858671D2*
X1885177D1*
X2031596D2*
X2049993D1*
X598992Y1830891D2*
X801044D1*
X1015679D2*
X1324092D1*
X1400788D2*
X1474734D1*
X598274Y1806022D2*
X799285D1*
X1017473D2*
X1328936D1*
X1395980D2*
X1473872D1*
X575775Y1781154D2*
X809154D1*
X1007569D2*
X1323625D1*
X1401291D2*
X1476241D1*
X546745Y1756285D2*
X802443D1*
X1014280D2*
X1296856D1*
X1855620D2*
X1873550D1*
X546745Y1731416D2*
X798819D1*
X1017904D2*
X1295815D1*
X1846219D2*
X1873550D1*
X546745Y1706547D2*
X806534D1*
X1010225D2*
X1295815D1*
X1832475D2*
X1873550D1*
X473900Y1681678D2*
X804202D1*
X1012521D2*
X1051300D1*
X1101622D2*
X1295815D1*
X1813205D2*
X1831099D1*
X546745Y1656810D2*
X798675D1*
X1133487D2*
X1295815D1*
X1785539D2*
X1813229D1*
X2032314D2*
X2058426D1*
X546745Y1631941D2*
X804345D1*
X1143714D2*
X1295815D1*
X1740037D2*
X1788361D1*
X2050794D2*
X2084011D1*
X546745Y1607072D2*
X806355D1*
X1143570D2*
X1295815D1*
X1586848D2*
X1763494D1*
X2070746D2*
X2113149D1*
X546745Y1582203D2*
X798819D1*
X1133021D2*
X1282143D1*
X1014172Y1557335D2*
X1053202D1*
X1040403Y1532466D2*
X1089589D1*
X1063441Y1507597D2*
X1089589D1*
X1070044Y1482728D2*
X1089589D1*
X1066204Y1457860D2*
X1089589D1*
X1049052Y1432991D2*
X1089589D1*
X1064410Y1408122D2*
X1089589D1*
X1070367Y1383253D2*
X1089445D1*
X498732Y1010222D2*
X544795D1*
X679911D2*
X698810D1*
X497799Y985353D2*
X545656D1*
X679050D2*
X697051D1*
X485275Y960484D2*
X535716D1*
X416593Y935615D2*
X528216D1*
X416593Y910747D2*
X533922D1*
X416593Y885878D2*
X564495D1*
X416593Y861009D2*
X605044D1*
X1068537D2*
X1089589D1*
X416593Y836140D2*
X605044D1*
X1043848D2*
X1089589D1*
X416593Y811272D2*
X605044D1*
X879499D2*
X922009D1*
X1011732D2*
X1089589D1*
X416593Y786403D2*
X605044D1*
X904366D2*
X921902D1*
X1011876D2*
X1089589D1*
X416593Y761534D2*
X605044D1*
X1011876D2*
X1089589D1*
X416593Y736665D2*
X605044D1*
X1011840D2*
X1089589D1*
X416593Y711797D2*
X605044D1*
X1011804D2*
X1089589D1*
X416593Y686928D2*
X564388D1*
X1011876D2*
X1089589D1*
X416593Y662059D2*
X533958D1*
X1011876D2*
X1089589D1*
X416593Y637190D2*
X528288D1*
X1011804D2*
X1089589D1*
X485383Y612322D2*
X535824D1*
X667567D2*
X694863D1*
X1011876D2*
X1089589D1*
X497870Y587453D2*
X545656D1*
X679086D2*
X733725D1*
X1011876D2*
X1089589D1*
X498768Y562584D2*
X544831D1*
X679911D2*
X733725D1*
X1011876D2*
X1089589D1*
X1011696Y537715D2*
X1089589D1*
X1011876Y512846D2*
X1089589D1*
X2776663Y2728825D2*
X2801100D1*
X2797811Y2732810D1*
X2794348Y2738462D1*
X2791811Y2744586D1*
X2790264Y2751031D1*
X2789743Y2757639D1*
X2790276Y2764311D1*
X2750327Y2764408D1*
X2724339D1*
X2724250Y2736837D1*
X2723514Y2732189D1*
X2722871Y2729914D1*
X2724071Y2728825D1*
X2776663D1*
X1647070Y2037417D2*
X1604655D1*
X1605691Y2032692D1*
X1606211Y2026084D1*
X1605691Y2019476D1*
X1604143Y2013030D1*
X1601607Y2006906D1*
X1598143Y2001255D1*
X1593838Y1996214D1*
X1588798Y1991909D1*
X1583146Y1988446D1*
X1577022Y1985909D1*
X1570577Y1984362D1*
X1566234Y1983931D1*
X1501986Y1919813D1*
X1497998Y1916916D1*
X1493606Y1914678D1*
X1488918Y1913155D1*
X1484049Y1912383D1*
X1470425Y1912287D1*
X1470444Y1851459D1*
X1394435D1*
X1391453Y1846844D1*
X1394825Y1841446D1*
X1397007Y1836178D1*
X1398338Y1830634D1*
X1398785Y1824950D1*
X1398338Y1819266D1*
X1397007Y1813722D1*
X1394825Y1808455D1*
X1391453Y1803094D1*
X1394825Y1797696D1*
X1397007Y1792428D1*
X1398338Y1786884D1*
X1398785Y1781200D1*
X1398338Y1775516D1*
X1397210Y1770691D1*
X1480622Y1771073D1*
X1478037Y1785816D1*
X1476436Y1804111D1*
X1476585Y1822476D1*
X1478484Y1840744D1*
X1482116Y1858747D1*
X1487446Y1876322D1*
X1494427Y1893309D1*
X1502996Y1909554D1*
X1513073Y1924908D1*
X1524568Y1939231D1*
X1537376Y1952394D1*
X1551379Y1964277D1*
X1566452Y1974771D1*
X1582456Y1983780D1*
X1599246Y1991224D1*
X1616668Y1997033D1*
X1634565Y2001156D1*
X1647101Y2002944D1*
X1647074Y2037429D1*
X1598530Y2100365D2*
Y2142061D1*
X1565559Y2142092D1*
X1560458Y2137001D1*
X1560654Y2118196D1*
X1567283D1*
X1573830Y2117159D1*
X1580134Y2115111D1*
X1586040Y2112101D1*
X1591403Y2108205D1*
X1596090Y2103518D1*
X1598525Y2100342D1*
X1586063Y2342407D2*
X1521847D1*
X1521920Y2194607D1*
X1529392Y2201932D1*
X1533708Y2205067D1*
X1538460Y2207489D1*
X1543533Y2209137D1*
X1548802Y2209971D1*
X1609498Y2210076D1*
X1609475Y2305825D1*
Y2322786D1*
X1604477Y2325255D1*
X1600416Y2328206D1*
X1586062Y2342420D1*
X1737452Y2941419D2*
X1866589D1*
Y2904422D1*
X1871397Y2903563D1*
X1877701Y2901515D1*
X1883607Y2898506D1*
X1888969Y2894609D1*
X1893657Y2889922D1*
X1895076Y2888121D1*
X1931768Y2924686D1*
X1935576Y2927452D1*
X1939769Y2929588D1*
X1944245Y2931043D1*
X1948894Y2931779D1*
X2024738Y2931872D1*
X2035826D1*
X2032842Y2936587D1*
X2031694Y2940587D1*
X2031094Y2944833D1*
Y3036374D1*
X2020876Y3046613D1*
X2022968Y3040494D1*
X2024239Y3033264D1*
X2024383Y3027415D1*
X2023470Y3020132D1*
X2021365Y3013099D1*
X2018125Y3006513D1*
X2013839Y3000553D1*
X2008627Y2995384D1*
X2002631Y2991149D1*
X1996017Y2987965D1*
X1988967Y2985919D1*
X1983217Y2985151D1*
X1983211Y2981842D1*
X1696102D1*
X1661507Y2947265D1*
X1737457Y2947261D1*
Y2941412D1*
X2244697Y2078512D2*
X2280295D1*
X2280292Y2153659D1*
X2325398D1*
X2325187Y2163040D1*
X2244698D1*
X2244709Y2078490D1*
X1810294Y2039843D2*
Y1979907D1*
X1762418D1*
X1775054Y1972223D1*
X1789865Y1961364D1*
X1803575Y1949143D1*
X1816057Y1935671D1*
X1827199Y1921071D1*
X1836898Y1905475D1*
X1845067Y1889026D1*
X1851631Y1871874D1*
X1856531Y1854174D1*
X1859722Y1836087D1*
X1861174Y1817779D1*
X1861050Y1802545D1*
X1859300Y1784263D1*
X1855815Y1766231D1*
X1850628Y1748613D1*
X1843785Y1731570D1*
X1835349Y1715256D1*
X1825397Y1699821D1*
X1814019Y1685404D1*
X1801319Y1672137D1*
X1787413Y1660141D1*
X1772426Y1649525D1*
X1756496Y1640385D1*
X1739767Y1632805D1*
X1722393Y1626854D1*
X1704530Y1622586D1*
X1686341Y1620039D1*
X1667993Y1619238D1*
X1649652Y1620189D1*
X1631485Y1622883D1*
X1613658Y1627297D1*
X1596332Y1633389D1*
X1584333Y1638807D1*
X1584343Y1496486D1*
X1609628Y1496582D1*
X1603995Y1501296D1*
X1598981Y1506663D1*
X1594661Y1512602D1*
X1591100Y1519025D1*
X1588350Y1525836D1*
X1586454Y1532931D1*
X1585440Y1540205D1*
X1585323Y1547549D1*
X1586104Y1554852D1*
X1587773Y1562004D1*
X1590303Y1568899D1*
X1593657Y1575433D1*
X1597786Y1581507D1*
X1602625Y1587032D1*
X1608104Y1591923D1*
X1614140Y1596107D1*
X1620642Y1599522D1*
X1627513Y1602116D1*
X1634650Y1603851D1*
X1641945Y1604701D1*
X1649290Y1604652D1*
X1656573Y1603705D1*
X1663686Y1601875D1*
X1670521Y1599189D1*
X1676977Y1595687D1*
X1682957Y1591423D1*
X1688370Y1586459D1*
X1693136Y1580871D1*
X1695217Y1577921D1*
X1699626Y1583772D1*
X1706279Y1590425D1*
X1713891Y1595955D1*
X1722273Y1600226D1*
X1731221Y1603133D1*
X1740514Y1604605D1*
X1749922D1*
X1759214Y1603133D1*
X1761427Y1602509D1*
X1828495Y1669585D1*
X1830456Y1675568D1*
X1833466Y1681474D1*
X1837362Y1686837D1*
X1842049Y1691524D1*
X1847411Y1695420D1*
X1853318Y1698430D1*
X1859622Y1700478D1*
X1866169Y1701515D1*
X1872797D1*
X1876027Y1701133D1*
X1876034Y1844900D1*
X1898534D1*
X1878662Y1864906D1*
X1875896Y1868714D1*
X1873759Y1872907D1*
X1872305Y1877383D1*
X1871569Y1882031D1*
X1871476Y1957875D1*
Y2039871D1*
X1810274Y2039841D1*
X1708357Y2710571D2*
X1649578D1*
X1649546Y2699516D1*
X1708336Y2699522D1*
X1708324Y2710583D1*
X2094448Y1604790D2*
X2115655D1*
X2115635Y1618288D1*
X2088635Y1618315D1*
Y1630624D1*
X2084080Y1633802D1*
X2029802Y1687950D1*
X2029822Y1650444D1*
X2062382Y1617724D1*
X2065149Y1613916D1*
X2067285Y1609723D1*
X2068740Y1605247D1*
X2069476Y1600589D1*
X2072438Y1598255D1*
X2080460Y1593339D1*
X2085250Y1589414D1*
X2085261Y1604790D1*
X2094448D1*
X2785743Y2860693D2*
X2845728D1*
X2845759Y2924463D1*
X2483830Y2924459D1*
X2483845Y2860689D1*
X2785744Y2860657D1*
X2949849Y2791957D2*
X2902209D1*
X2902339Y2766018D1*
X2906235Y2760655D1*
X2909244Y2754749D1*
X2911293Y2748445D1*
X2912330Y2741898D1*
Y2735270D1*
X2911316Y2728837D1*
X2949817Y2728825D1*
X2949845Y2791938D1*
X2340261Y2868714D2*
Y2924463D1*
X2284457Y2924459D1*
X2340265Y2868711D1*
X1009369Y511495D2*
X1009479Y504332D1*
X1092077D1*
Y884325D1*
X1066316Y884348D1*
X1067488Y879223D1*
X1067969Y873123D1*
X1067488Y867024D1*
X1066060Y861074D1*
X1063719Y855421D1*
X1060522Y850204D1*
X1056548Y845552D1*
X1051895Y841578D1*
X1046678Y838381D1*
X1041026Y836040D1*
X1038399Y835051D1*
X1034206Y832914D1*
X1029730Y831460D1*
X1025082Y830724D1*
X1009272Y830631D1*
X1009369Y816293D1*
X1009113Y812623D1*
X1009369Y803808D1*
Y776923D1*
X1009261Y751937D1*
X1009369Y737552D1*
X1009113Y733883D1*
X1009369Y725067D1*
Y698182D1*
X1009305Y676662D1*
X1009287Y672891D1*
Y653206D1*
X1009261Y633827D1*
X1009369Y619442D1*
X1009113Y615772D1*
X1009369Y606957D1*
Y580072D1*
X1009305Y558551D1*
X1009287Y554781D1*
Y535096D1*
X1009261Y515716D1*
X1009369Y511495D1*
X924385Y763884D2*
X924384Y788923D1*
X924492Y813908D1*
X924384Y820692D1*
X867589Y820697D1*
X924390Y763873D1*
X1330462Y1851459D2*
X1254460D1*
Y1919890D1*
X1194276Y1979949D1*
X1126756Y2047469D1*
X1121155Y2041421D1*
X1115566Y2036655D1*
X1109480Y2032541D1*
X1102975Y2029131D1*
X1096130Y2026466D1*
X1089031Y2024580D1*
X1081766Y2023496D1*
X1074426Y2023227D1*
X1067101Y2023778D1*
X1059884Y2025141D1*
X1052863Y2027299D1*
X1046126Y2030226D1*
X1039756Y2033884D1*
X1033834Y2038229D1*
X1028432Y2043207D1*
X1023618Y2048755D1*
X1019452Y2054804D1*
X1015986Y2061280D1*
X1013262Y2068101D1*
X1011314Y2075184D1*
X1010167Y2082439D1*
X1009836Y2089777D1*
X1010323Y2097106D1*
X1011624Y2104335D1*
X1013721Y2111374D1*
X1016589Y2118137D1*
X1020193Y2124537D1*
X1024486Y2130497D1*
X1029417Y2135941D1*
X1034923Y2140803D1*
X1040936Y2145021D1*
X1047382Y2148544D1*
X1054180Y2151327D1*
X1061245Y2153335D1*
X1068490Y2154544D1*
X1076765Y2154925D1*
X1076729Y2256797D1*
X1073016Y2250459D1*
X1068620Y2244575D1*
X1063596Y2239216D1*
X1058007Y2234450D1*
X1051921Y2230337D1*
X1045416Y2226926D1*
X1038571Y2224261D1*
X1031472Y2222375D1*
X1024207Y2221291D1*
X1014461Y2221010D1*
X934457Y2221196D1*
X927174Y2222154D1*
X920044Y2223917D1*
X914339Y2225968D1*
X916433Y2217204D1*
X917147Y2208133D1*
X916433Y2199061D1*
X914309Y2190213D1*
X910827Y2181806D1*
X906072Y2174048D1*
X901696Y2168787D1*
X906072Y2163477D1*
X908355Y2160061D1*
X913489Y2167053D1*
X919924Y2173487D1*
X927285Y2178835D1*
X935393Y2182966D1*
X944047Y2185778D1*
X953034Y2187202D1*
X962134D1*
X971121Y2185778D1*
X979775Y2182966D1*
X987883Y2178835D1*
X995244Y2173487D1*
X1001679Y2167053D1*
X1007027Y2159691D1*
X1011158Y2151584D1*
X1013970Y2142929D1*
X1015393Y2133942D1*
Y2124843D1*
X1013970Y2115855D1*
X1011158Y2107201D1*
X1007027Y2099094D1*
X1001679Y2091732D1*
X1000121Y2090047D1*
X1004497Y2084737D1*
X1009252Y2076978D1*
X1012734Y2068572D1*
X1014858Y2059724D1*
X1015572Y2050652D1*
X1014858Y2041581D1*
X1012734Y2032733D1*
X1009252Y2024326D1*
X1004497Y2016568D1*
X1000121Y2011307D1*
X1004497Y2005997D1*
X1009252Y1998238D1*
X1012734Y1989831D1*
X1014858Y1980983D1*
X1015572Y1971912D1*
X1014858Y1962841D1*
X1012734Y1953993D1*
X1009252Y1945586D1*
X1004497Y1937827D1*
X1000121Y1932567D1*
X1004497Y1927257D1*
X1009252Y1919498D1*
X1012734Y1911091D1*
X1014858Y1902243D1*
X1015572Y1893172D1*
X1014858Y1884101D1*
X1012734Y1875253D1*
X1009252Y1866846D1*
X1004497Y1859087D1*
X1000121Y1853827D1*
X1004497Y1848516D1*
X1009252Y1840758D1*
X1012734Y1832351D1*
X1014858Y1823503D1*
X1015572Y1814432D1*
X1014858Y1805360D1*
X1012734Y1796512D1*
X1009252Y1788106D1*
X1004497Y1780347D1*
X1000121Y1775087D1*
X1005053Y1768998D1*
X1008882Y1762731D1*
X1011888Y1756031D1*
X1014023Y1749004D1*
X1015253Y1741763D1*
X1015543Y1733855D1*
X1014846Y1726544D1*
X1013231Y1719379D1*
X1010722Y1712477D1*
X1007362Y1705946D1*
X1003203Y1699893D1*
X1000149Y1696322D1*
X1004497Y1691036D1*
X1009252Y1683278D1*
X1012734Y1674871D1*
X1014858Y1666023D1*
X1015572Y1656951D1*
X1014858Y1647880D1*
X1012734Y1639032D1*
X1009252Y1630625D1*
X1004497Y1622867D1*
X1000121Y1617606D1*
X1004497Y1612296D1*
X1009252Y1604537D1*
X1012734Y1596131D1*
X1014858Y1587283D1*
X1015572Y1578211D1*
X1014858Y1569140D1*
X1012734Y1560292D1*
X1009252Y1551885D1*
X1004497Y1544127D1*
X1002350Y1541403D1*
X1010557Y1541300D1*
X1020157Y1539779D1*
X1029401Y1536776D1*
X1038062Y1532363D1*
X1045925Y1526650D1*
X1052798Y1519777D1*
X1058511Y1511913D1*
X1062924Y1503253D1*
X1065928Y1494009D1*
X1067448Y1484408D1*
Y1474689D1*
X1065928Y1465088D1*
X1062924Y1455844D1*
X1058511Y1447184D1*
X1052798Y1439320D1*
X1045925Y1432447D1*
X1043672Y1430671D1*
X1049747Y1425364D1*
X1056060Y1417973D1*
X1061138Y1409686D1*
X1064858Y1400706D1*
X1067127Y1391254D1*
X1067890Y1381564D1*
X1067127Y1371874D1*
X1064858Y1362423D1*
X1061138Y1353443D1*
X1059867Y1351172D1*
X1092076Y1383388D1*
X1092077Y1555836D1*
X1084367Y1554448D1*
X1077037Y1553975D1*
X1069700Y1554321D1*
X1062447Y1555482D1*
X1055369Y1557444D1*
X1048553Y1560181D1*
X1042084Y1563661D1*
X1036043Y1567839D1*
X1030504Y1572663D1*
X1025538Y1578075D1*
X1021204Y1584006D1*
X1017558Y1590382D1*
X1014645Y1597125D1*
X1012501Y1604151D1*
X1011152Y1611371D1*
X1010616Y1618697D1*
X1010899Y1626037D1*
X1011997Y1633299D1*
X1013898Y1640394D1*
X1016576Y1647234D1*
X1019999Y1653733D1*
X1024125Y1659810D1*
X1028902Y1665390D1*
X1034270Y1670403D1*
X1040164Y1674787D1*
X1046509Y1678488D1*
X1053226Y1681459D1*
X1060233Y1683664D1*
X1067441Y1685075D1*
X1074762Y1685675D1*
X1082104Y1685455D1*
X1089376Y1684420D1*
X1096487Y1682581D1*
X1103349Y1679962D1*
X1109877Y1676594D1*
X1115990Y1672521D1*
X1121611Y1667793D1*
X1126670Y1662468D1*
X1131105Y1656613D1*
X1134861Y1650300D1*
X1137890Y1643609D1*
X1140156Y1636621D1*
X1141629Y1629425D1*
X1142291Y1622110D1*
X1142100Y1614329D1*
X1141079Y1607055D1*
X1139254Y1599940D1*
X1136649Y1593073D1*
X1133294Y1586538D1*
X1129233Y1580418D1*
X1126124Y1576574D1*
X1279028D1*
X1298314Y1595876D1*
X1298481Y1751909D1*
X1299688Y1757261D1*
X1301696Y1760902D1*
X1304609Y1764660D1*
X1309510Y1768096D1*
X1312221Y1769231D1*
X1317626Y1770281D1*
X1327757Y1770366D1*
X1326563Y1775516D1*
X1326116Y1781200D1*
X1326563Y1786884D1*
X1327894Y1792428D1*
X1330076Y1797696D1*
X1333449Y1803056D1*
X1330076Y1808455D1*
X1327894Y1813722D1*
X1326563Y1819266D1*
X1326116Y1824950D1*
X1326563Y1830634D1*
X1327894Y1836178D1*
X1330076Y1841446D1*
X1333449Y1846806D1*
X1330496Y1851456D1*
X736267Y596980D2*
X699535D1*
Y610150D1*
X694900Y613934D1*
X663832D1*
X668053Y607998D1*
X671619Y601577D1*
X674448Y594798D1*
X676505Y587747D1*
X677763Y580510D1*
X678208Y572867D1*
X677798Y565534D1*
X676574Y558291D1*
X674551Y551230D1*
X671754Y544438D1*
X668868Y539075D1*
X736267D1*
X736235Y596994D1*
X708721Y990566D2*
X722608D1*
X714309Y996948D1*
X708277Y1002525D1*
X702700Y1008558D1*
X697613Y1015009D1*
X693049Y1021840D1*
X688188Y1030845D1*
X683156Y1029730D1*
X671189Y1029576D1*
X674439Y1021956D1*
X676496Y1014904D1*
X677754Y1007668D1*
X678199Y1000025D1*
X677789Y992691D1*
X676565Y985449D1*
X674924Y979538D1*
X695111Y979536D1*
X697788Y982065D1*
X699535Y990566D1*
X708721D1*
X878031Y2262964D2*
X875890Y2269411D1*
X874340Y2276591D1*
X873600Y2283899D1*
X873678Y2291243D1*
X874573Y2298534D1*
X876275Y2305679D1*
X878762Y2312591D1*
X882576Y2320169D1*
X839938Y2320173D1*
X839596Y2305277D1*
Y2262754D1*
X845622Y2264519D1*
X854609Y2265942D1*
X863708D1*
X872696Y2264519D1*
X878029Y2262932D1*
X801236Y1576558D2*
X801349Y1582761D1*
X802773Y1591748D1*
X805585Y1600402D1*
X809716Y1608510D1*
X815064Y1615872D1*
X816622Y1617556D1*
X812245Y1622867D1*
X807491Y1630625D1*
X804009Y1639032D1*
X801885Y1647880D1*
X801171Y1656951D1*
X801885Y1666023D1*
X804009Y1674871D1*
X807491Y1683278D1*
X812245Y1691036D1*
X816622Y1696297D1*
X812598Y1701127D1*
X808603Y1707289D1*
X805418Y1713907D1*
X803096Y1720874D1*
X801672Y1728079D1*
X801171Y1735406D1*
X801600Y1742738D1*
X802952Y1749956D1*
X805206Y1756946D1*
X808325Y1763595D1*
X812260Y1769796D1*
X816584Y1775053D1*
X812245Y1780347D1*
X807491Y1788106D1*
X804009Y1796512D1*
X801885Y1805360D1*
X801171Y1814432D1*
X801885Y1823503D1*
X804009Y1832351D1*
X807491Y1840758D1*
X812245Y1848516D1*
X816622Y1853777D1*
X812176Y1859191D1*
X657682Y1859285D1*
X652414Y1860119D1*
X647341Y1861767D1*
X642588Y1864189D1*
X638273Y1867324D1*
X612994Y1892454D1*
X612974Y1854770D1*
X579178D1*
X583210Y1851725D1*
X587897Y1847038D1*
X591793Y1841675D1*
X594802Y1835769D1*
X596851Y1829465D1*
X597887Y1822918D1*
Y1816289D1*
X596851Y1809742D1*
X594802Y1803438D1*
X591793Y1797532D1*
X587897Y1792170D1*
X583210Y1787483D1*
X577847Y1783586D1*
X571941Y1780577D1*
X565637Y1778529D1*
X559090Y1777492D1*
X552461D1*
X545914Y1778529D1*
X544256Y1778996D1*
X544252Y1697909D1*
X471414D1*
X471417Y1664265D1*
X544252Y1664279D1*
Y1576571D1*
X801207Y1576573D1*
X812176Y1927153D2*
X816622Y1932517D1*
X812598Y1937347D1*
X808603Y1943509D1*
X805418Y1950127D1*
X803096Y1957095D1*
X801672Y1964300D1*
X801171Y1971627D1*
X801600Y1978958D1*
X802952Y1986177D1*
X805206Y1993167D1*
X808325Y1999815D1*
X812260Y2006017D1*
X816584Y2011273D1*
X812245Y2016568D1*
X807491Y2024326D1*
X804009Y2032733D1*
X801885Y2041581D1*
X801565Y2044283D1*
X766084Y2008950D1*
X762096Y2006053D1*
X757704Y2003815D1*
X753016Y2002292D1*
X748147Y2001521D1*
X681378Y2001424D1*
X612947D1*
X612974Y1988602D1*
X674439Y1927154D1*
X812175Y1927164D1*
X1974033Y2384521D2*
X1977466Y2387340D1*
X1983118Y2390803D1*
X1989242Y2393340D1*
X1995687Y2394887D1*
X2002295Y2395407D1*
X2008685Y2394913D1*
X2008684Y2450347D1*
X1897789Y2450341D1*
X1901125Y2444276D1*
X1907309Y2443263D1*
X1913613Y2441214D1*
X1919519Y2438205D1*
X1924882Y2434309D1*
X1929569Y2429622D1*
X1933465Y2424259D1*
X1936474Y2418353D1*
X1938522Y2412049D1*
X1939559Y2405502D1*
Y2398873D1*
X1938522Y2392326D1*
X1936474Y2386022D1*
X1935785Y2384528D1*
X1974013Y2384525D1*
X1598007Y2051086D2*
X1598525Y2050342D1*
X1598007Y2051082D1*
X1490488Y2876043D2*
X1485242Y2874384D1*
X1478695Y2873347D1*
X1472066D1*
X1465519Y2874384D1*
X1459215Y2876433D1*
X1453309Y2879442D1*
X1447947Y2883338D1*
X1443259Y2888025D1*
X1439363Y2893388D1*
X1436354Y2899294D1*
X1434306Y2905598D1*
X1433269Y2912145D1*
Y2918774D1*
X1434306Y2925321D1*
X1434970Y2927677D1*
X1403113Y2959530D1*
X1403093Y2901905D1*
X1408317Y2899107D1*
X1414537Y2894589D1*
X1419973Y2889152D1*
X1424492Y2882933D1*
X1427982Y2876083D1*
X1430358Y2868772D1*
X1431560Y2861179D1*
Y2853491D1*
X1430472Y2846472D1*
X1502588Y2846458D1*
X1498545Y2851255D1*
X1495081Y2856906D1*
X1492545Y2863030D1*
X1490997Y2869476D1*
X1490480Y2876019D1*
X1968409Y2306458D2*
X1969390Y2312529D1*
X1971438Y2318833D1*
X1972224Y2320539D1*
X1721523Y2320541D1*
X1721559Y2285360D1*
X1739516Y2285278D1*
X1744358Y2284512D1*
X1749020Y2282997D1*
X1753388Y2280771D1*
X1757354Y2277889D1*
X1775877Y2259503D1*
X1830951Y2259490D1*
X1870592Y2298984D1*
X1874558Y2301865D1*
X1878926Y2304091D1*
X1883589Y2305606D1*
X1888431Y2306373D1*
X1964373Y2306469D1*
X1968428D1*
X2143169Y2412805D2*
X2147360Y2407888D1*
X2150823Y2402237D1*
X2153360Y2396113D1*
X2154907Y2389667D1*
X2155352Y2384962D1*
X2174882Y2384972D1*
X2176965Y2392211D1*
X2177063Y2467332D1*
X2177848Y2472290D1*
X2179400Y2477064D1*
X2180456Y2479354D1*
X2177281Y2480038D1*
X2146456D1*
X2143177Y2470823D1*
Y2412798D1*
X2177640Y2612318D2*
X2178693Y2619267D1*
X2180741Y2625571D1*
X2183750Y2631477D1*
X2187647Y2636840D1*
X2192334Y2641527D1*
X2197696Y2645423D1*
X2203602Y2648432D1*
X2209906Y2650480D1*
X2216453Y2651517D1*
X2223082D1*
X2229629Y2650480D1*
X2231487Y2649956D1*
X2231475Y2686314D1*
X2143192Y2686290D1*
X2140198Y2681279D1*
X2136931Y2677455D1*
X2111234Y2651758D1*
X2113610Y2649057D1*
X2120218Y2649577D1*
X2126826Y2649057D1*
X2133271Y2647509D1*
X2139395Y2644973D1*
X2145047Y2641509D1*
X2150088Y2637204D1*
X2154392Y2632164D1*
X2157856Y2626512D1*
X2160392Y2620388D1*
X2161940Y2613943D1*
X2162130Y2612334D1*
X2177621Y2612327D1*
X2208699Y2176274D2*
X2204030Y2179186D1*
X2198990Y2183491D1*
X2194685Y2188532D1*
X2191222Y2194183D1*
X2188685Y2200307D1*
X2187671Y2204071D1*
X2180504Y2206316D1*
X2179057Y2206983D1*
X2172768Y2202285D1*
X2166862Y2199275D1*
X2164006Y2198221D1*
X2164008Y2176300D1*
X2208643Y2176274D1*
X527571Y1851012D2*
X532422Y1854764D1*
X512745Y1854770D1*
Y1947316D1*
X428093Y1947290D1*
Y1834677D1*
X437049Y1843491D1*
X441037Y1846388D1*
X445429Y1848626D1*
X450117Y1850149D1*
X454985Y1850920D1*
X527532Y1851017D1*
X1869982Y2176274D2*
X1917254D1*
X1913810Y2180910D1*
X1911531Y2185383D1*
X1909980Y2190158D1*
X1909194Y2195116D1*
X1909096Y2234710D1*
X1909490Y2239715D1*
X1909982Y2242188D1*
X1908693Y2243985D1*
X1903849D1*
X1864193Y2204491D1*
X1860219Y2201605D1*
X1860808Y2198216D1*
X1863992Y2194488D1*
X1866553Y2190308D1*
X1868430Y2185779D1*
X1869574Y2181012D1*
X1869863Y2178566D1*
X1944491Y2064190D2*
X1930677D1*
X1931368Y2059687D1*
X1931461Y2002538D1*
X1953841Y2002565D1*
X1950635Y2006325D1*
X1948012Y2010606D1*
X1946091Y2015244D1*
X1944919Y2020125D1*
X1944525Y2025130D1*
Y2064208D1*
X1727992Y2686290D2*
X1721533D1*
X1721559Y2596139D1*
Y2514320D1*
X2008691Y2514326D1*
X2008684Y2638609D1*
X2002399Y2639489D1*
X1833474Y2639585D1*
X1828632Y2640352D1*
X1823969Y2641867D1*
X1819601Y2644093D1*
X1815635Y2646974D1*
X1796925Y2665547D1*
X1793742Y2669275D1*
X1791180Y2673455D1*
X1789304Y2677985D1*
X1788159Y2682752D1*
X1787871Y2685197D1*
X1787025Y2686326D1*
X1728025Y2686297D1*
X2244709Y2733316D2*
Y2699513D1*
X2278519Y2699522D1*
X2244708Y2733300D1*
X2003374Y1962260D2*
Y1872074D1*
X2009472Y1870768D1*
X2013820Y1868967D1*
X2017832Y1866508D1*
X2021417Y1863445D1*
X2051313Y1833417D1*
X2052493Y1840476D1*
X2052592Y1880880D1*
X2053377Y1885839D1*
X2054929Y1890613D1*
X2057208Y1895086D1*
X2060158Y1899147D1*
X2066487Y1905616D1*
X2066490Y1952371D1*
X2056906Y1961982D1*
X2005163Y1962072D1*
X2176574Y1858544D2*
Y1855180D1*
X2116468D1*
X2116478Y1844890D1*
X2193597Y1844899D1*
X2193594Y1863505D1*
X2188711Y1860965D1*
X2183937Y1859414D1*
X2178969Y1858628D1*
X607533Y681248D2*
Y754714D1*
Y833454D1*
Y882548D1*
X602216Y884682D1*
X600056Y885893D1*
X596250Y886394D1*
X588606Y884559D1*
X580770Y883942D1*
X572934Y884559D1*
X565291Y886394D1*
X558029Y889402D1*
X551327Y893509D1*
X545350Y898614D1*
X540245Y904591D1*
X536138Y911293D1*
X533130Y918555D1*
X531295Y926198D1*
X530678Y934034D1*
X531295Y941870D1*
X533130Y949513D1*
X536138Y956775D1*
X540245Y963477D1*
X545350Y969454D1*
X551570Y974721D1*
X548856Y982625D1*
X547313Y989806D1*
X546579Y997115D1*
X546665Y1004459D1*
X547567Y1011749D1*
X549276Y1018893D1*
X551770Y1025801D1*
X553528Y1029582D1*
X489543Y1029576D1*
X492632Y1023065D1*
X494952Y1016096D1*
X496430Y1008902D1*
X497047Y1001583D1*
X496821Y994548D1*
X495735Y987284D1*
X493798Y980199D1*
X491035Y973394D1*
X487487Y966963D1*
X483202Y960998D1*
X478241Y955581D1*
X472674Y950790D1*
X466579Y946692D1*
X460042Y943344D1*
X453155Y940793D1*
X446013Y939075D1*
X438719Y938215D1*
X431374Y938224D1*
X424082Y939102D1*
X416946Y940838D1*
X414069Y941805D1*
X414075Y631095D1*
X420832Y633103D1*
X428066Y634376D1*
X435399Y634784D1*
X442729Y634322D1*
X449953Y632995D1*
X456969Y630822D1*
X463679Y627834D1*
X469988Y624073D1*
X475807Y619591D1*
X481054Y614453D1*
X485657Y608729D1*
X489550Y602500D1*
X492678Y595855D1*
X494998Y588886D1*
X496476Y581692D1*
X497093Y574373D1*
X496866Y567338D1*
X495781Y560074D1*
X493844Y552989D1*
X491081Y546184D1*
X487089Y539074D1*
X555841Y539075D1*
X551902Y546805D1*
X549375Y553702D1*
X547633Y560838D1*
X546695Y568123D1*
X546576Y575467D1*
X547275Y582779D1*
X548784Y589968D1*
X551084Y596944D1*
X551406Y598298D1*
X545429Y603403D1*
X540324Y609380D1*
X536217Y616082D1*
X533209Y623344D1*
X531374Y630987D1*
X530757Y638823D1*
X531374Y646659D1*
X533209Y654302D1*
X536217Y661564D1*
X540324Y668266D1*
X545429Y674243D1*
X551406Y679348D1*
X558108Y683455D1*
X565370Y686463D1*
X573013Y688298D1*
X580849Y688915D1*
X588685Y688298D1*
X596328Y686463D1*
X603590Y683455D1*
X607520Y681200D1*
X1644707Y2085563D2*
D22*
Y2037453D1*
X1534539Y2388584D2*
Y2342443D1*
X1751514Y2941383D2*
Y2895241D1*
X1762148Y2026084D2*
Y1979942D1*
Y2026084D2*
X1810258D1*
X1645218Y1604754D2*
Y1544833D1*
X1585297D2*
X1645218D1*
X2792751Y2860657D2*
Y2812551D1*
X2917551Y2879450D2*
Y2791993D1*
X2845795Y2879450D2*
X2917551D1*
X2340297D2*
X2483809D1*
X966877Y507332D2*
X1009343D1*
X966877Y566387D2*
X1009343D1*
X966877Y625442D2*
X1009343D1*
X966877Y684497D2*
X1009343D1*
X966877Y743552D2*
X1009343D1*
X924411Y822293D2*
X1009343D1*
X1047877Y504296D2*
Y440340D1*
X1312452Y1893701D2*
Y1851495D1*
X1254496Y1893701D2*
X1312452D1*
X1412452D2*
Y1851495D1*
Y1893701D2*
X1470409D1*
X2738969Y2728789D2*
Y2669833D1*
X1075694Y2154904D2*
Y2023251D1*
X1009868Y2089077D2*
X1075694D1*
X978765Y2286873D2*
Y2221046D1*
X873569Y2286873D2*
X978765D1*
X957584Y1735692D2*
X1015536D1*
X801206D2*
X859159D1*
X801206Y1971912D2*
X859159D1*
X1076469Y1685661D2*
Y1554008D1*
X1010642Y1619835D2*
X1142295D1*
X497091Y1664244D2*
Y1605307D1*
X544216D1*
X497091Y1756882D2*
Y1697945D1*
Y1756882D2*
X544216D1*
X1665517Y2529731D2*
X1721523D1*
X1657718Y2947225D2*
Y2901084D1*
X1948332Y2002529D2*
Y1967223D1*
Y1941623D2*
X2003338D1*
X1948332Y1916024D2*
X2003338D1*
X1948332Y1890522D2*
X2003338D1*
X2145627Y1844863D2*
Y1806608D1*
X657647Y644954D2*
Y613970D1*
X546560Y572867D2*
X678172D1*
X546551Y1000025D2*
X678163D1*
X435123Y1000052D2*
Y938146D1*
Y1000052D2*
X497030D1*
X435169Y634749D2*
Y572843D1*
X497076D1*
X464434Y2032837D2*
Y1947326D1*
X512781Y1895042D2*
X612938D1*
X1980213Y3029252D2*
Y2985079D1*
Y3029252D2*
X2024385D1*
X1062427Y1492005D2*
D16*
X1095213D1*
X1062463Y1467136D2*
X1095213D1*
X837720Y1442268D2*
X848760D1*
X935936D2*
X961867D1*
X1049509D2*
X1095213D1*
X837720Y1417399D2*
X846832D1*
X937837D2*
X960862D1*
X1051051D2*
X1095213D1*
X1063001Y1392530D2*
X1095213D1*
X1062356Y1367661D2*
X1084591D1*
X837720Y1342793D2*
X850411D1*
X934285D2*
X963518D1*
X1048396D2*
X1059730D1*
X813139Y1268186D2*
X844203D1*
X940995D2*
X957992D1*
X741657Y1243318D2*
X855614D1*
X931629D2*
X968505D1*
X1043911D2*
X1051470D1*
X941820Y1168711D2*
X957812D1*
X693969Y1143843D2*
X708094D1*
X856451D2*
X870112D1*
X925349D2*
X950958D1*
X925349Y1118974D2*
X933806D1*
X489787Y1019499D2*
X553577D1*
X671146D2*
X699626D1*
X493017Y994630D2*
X550526D1*
X674160D2*
X725283D1*
X484332Y969761D2*
X552930D1*
X412744Y944892D2*
X425202D1*
X445039D2*
X535815D1*
X960839D2*
X969152D1*
X412744Y920024D2*
X536747D1*
X960839D2*
X969152D1*
X412744Y895155D2*
X558098D1*
X412744Y870286D2*
X611315D1*
X1064077D2*
X1095213D1*
X412744Y845417D2*
X611315D1*
X1048862D2*
X1095213D1*
X412744Y820549D2*
X611315D1*
X861332D2*
X928172D1*
X1005587D2*
X1095213D1*
X412744Y795680D2*
X611315D1*
X886199D2*
X928172D1*
X1005550D2*
X1095213D1*
X412744Y770811D2*
X611315D1*
X911067D2*
X928244D1*
X1005514D2*
X1095213D1*
X412744Y745942D2*
X611315D1*
X1005587D2*
X1095213D1*
X412744Y721073D2*
X611315D1*
X1005587D2*
X1095213D1*
X412744Y696205D2*
X611315D1*
X1005479D2*
X1095213D1*
X412744Y671336D2*
X548984D1*
X1005587D2*
X1095213D1*
X412744Y646467D2*
X535205D1*
X1005587D2*
X1095213D1*
X464525Y621598D2*
X538075D1*
X1005587D2*
X1095213D1*
X487957Y596730D2*
X555299D1*
X669424D2*
X740031D1*
X1005371D2*
X1095213D1*
X493303Y571861D2*
X550311D1*
X674411D2*
X740031D1*
X1005587D2*
X1095213D1*
X486953Y546992D2*
X556232D1*
X668526D2*
X740031D1*
X830436D2*
X856547D1*
X1005587D2*
X1095213D1*
X830436Y522123D2*
X882060D1*
X1005587D2*
X1095213D1*
X955420Y472386D2*
X969152D1*
X955420Y447517D2*
X969152D1*
X827940Y522083D2*
X884184Y522047D1*
X880928Y525106D1*
X827923Y578113D1*
X827936Y522049D1*
X723903Y1238017D2*
X844018D1*
Y1225709D1*
X848579Y1233171D1*
X854251Y1239812D1*
X860892Y1245484D1*
X867907Y1249806D1*
X859882Y1254668D1*
X853240Y1260340D1*
X847568Y1266982D1*
X843005Y1274428D1*
X839663Y1282497D1*
X837623Y1290990D1*
X836938Y1299697D1*
X837623Y1308404D1*
X839663Y1316896D1*
X843005Y1324966D1*
X847568Y1332412D1*
X853240Y1339054D1*
X855058Y1340734D1*
X850022Y1345920D1*
X844888Y1352986D1*
X840923Y1360768D1*
X838224Y1369073D1*
X836858Y1377699D1*
Y1386434D1*
X838224Y1395060D1*
X840923Y1403366D1*
X844888Y1411148D1*
X850022Y1418214D1*
X856198Y1424390D1*
X863264Y1429524D1*
X865751Y1430917D1*
X859630Y1434773D1*
X852988Y1440445D1*
X847316Y1447087D1*
X842753Y1454533D1*
X839411Y1462602D1*
X837371Y1471094D1*
X836686Y1479802D1*
X837371Y1488509D1*
X839411Y1497001D1*
X842753Y1505071D1*
X847316Y1512517D1*
X850867Y1516865D1*
X835245Y1516874D1*
X835073Y1283668D1*
X834276Y1280840D1*
X832840Y1278276D1*
X830845Y1276118D1*
X828402Y1274486D1*
X783451Y1258727D1*
X723902Y1238014D1*
X727547Y1158230D2*
X693365D1*
Y1227392D1*
X691476Y1226437D1*
Y1114299D1*
X694634Y1121160D1*
X698407Y1127898D1*
X702697Y1134319D1*
X707478Y1140383D1*
X712719Y1146054D1*
X718390Y1151295D1*
X727690Y1158238D1*
X844018Y1169873D2*
Y1158230D1*
X836949D1*
X846135Y1151295D1*
X851806Y1146054D1*
X857047Y1140383D1*
X861828Y1134319D1*
X866118Y1127898D1*
X869891Y1121160D1*
X872606Y1115270D1*
X872597Y1148945D1*
X868339Y1150864D1*
X860892Y1155427D1*
X854251Y1161098D1*
X848579Y1167740D1*
X846425Y1170962D1*
X844020Y1169864D1*
X971673Y481123D2*
X952928D1*
X952933Y446991D1*
X955843Y445127D1*
X957837Y442970D1*
X959273Y440406D1*
X960071Y437577D1*
X960224Y426436D1*
Y404367D1*
X971659Y404373D1*
X971668Y481119D1*
X1003085Y511495D2*
X1002836Y498164D1*
X1008413Y498049D1*
X1097730D1*
X1097726Y890627D1*
X1056602Y890631D1*
X1059196Y885640D1*
X1060781Y880759D1*
X1061584Y875690D1*
Y870556D1*
X1060781Y865488D1*
X1059196Y860606D1*
X1056865Y856033D1*
X1053848Y851881D1*
X1050219Y848252D1*
X1046067Y845235D1*
X1041493Y842904D1*
X1036445Y841285D1*
X1031802Y838719D1*
X1026437Y837206D1*
X1022720Y836915D1*
X1003100D1*
X1002836Y831454D1*
X1003085Y824618D1*
X1002836Y813125D1*
X1003085Y806207D1*
X1002836Y793440D1*
X1003085Y786522D1*
X1002836Y773755D1*
X1003085Y766837D1*
X1002836Y754070D1*
X1003085Y747715D1*
X1002836Y734385D1*
X1003085Y727467D1*
X1002836Y714699D1*
X1003085Y707782D1*
X1002836Y695014D1*
X1003085Y688660D1*
X1002836Y675329D1*
X1003085Y668412D1*
X1002836Y655644D1*
X1003085Y648727D1*
X1002836Y635959D1*
X1003085Y629605D1*
X1002836Y616274D1*
X1003085Y609357D1*
X1002836Y596589D1*
X1003085Y589672D1*
X1002836Y576904D1*
X1003085Y570550D1*
X1002836Y557219D1*
X1003085Y550302D1*
X1002836Y537534D1*
X1003085Y530617D1*
X1002836Y517849D1*
X1003085Y511495D1*
X930668Y749546D2*
X930917Y754076D1*
X930668Y759638D1*
X930917Y772406D1*
X930668Y779323D1*
X930917Y792091D1*
X930668Y799008D1*
X930917Y811776D1*
X930668Y818130D1*
Y826979D1*
X852365Y826980D1*
X930655Y748722D1*
X930668Y760189D1*
X958304Y907556D2*
X971654D1*
X971668Y993539D1*
X961008Y1001465D1*
X960366Y1002059D1*
X960277Y971152D1*
X959660Y967257D1*
X958438Y963500D1*
X958339Y907560D1*
X1093753Y1006049D2*
X1097730D1*
X1097726Y1010193D1*
X1093693Y1006030D1*
X802776Y603264D2*
X705819D1*
Y612773D1*
X698375Y620194D1*
X648656Y620093D1*
X654193Y615268D1*
X659093Y609797D1*
X663283Y603765D1*
X666699Y597262D1*
X669289Y590390D1*
X671012Y583251D1*
X671845Y575954D1*
X671811Y569196D1*
X670907Y561907D1*
X669113Y554785D1*
X666457Y547938D1*
X662976Y541470D1*
X658837Y535621D1*
X742537Y535622D1*
X742518Y597083D1*
X808940D1*
X802751Y603283D1*
X744018Y984257D2*
X748144Y984282D1*
X737613Y988882D1*
X730875Y992655D1*
X724454Y996945D1*
X718390Y1001726D1*
X712719Y1006967D1*
X707478Y1012638D1*
X702697Y1018702D1*
X698407Y1025123D1*
X694634Y1031861D1*
X690096Y1042412D1*
X687815Y1039283D1*
X685508Y1037465D1*
X682839Y1036234D1*
X679957Y1035660D1*
X660201Y1035496D1*
X664203Y1029337D1*
X667416Y1022734D1*
X669793Y1015783D1*
X671295Y1008594D1*
X671902Y1001276D1*
X671660Y994521D1*
X670533Y987264D1*
X668520Y980201D1*
X665556Y973255D1*
X697694Y973252D1*
X703411Y978503D1*
X705058Y979602D1*
X705819Y984282D1*
X744035D1*
X948084Y1295329D2*
X946718Y1286703D1*
X944020Y1278398D1*
X940054Y1270615D1*
X934920Y1263550D1*
X928744Y1257374D1*
X921678Y1252240D1*
X918298Y1250346D1*
X926323Y1245484D1*
X932965Y1239812D1*
X938636Y1233171D1*
X943199Y1225724D1*
X946542Y1217655D1*
X948581Y1209163D1*
X949266Y1200455D1*
X948581Y1191748D1*
X946542Y1183256D1*
X943199Y1175186D1*
X938636Y1167740D1*
X932965Y1161098D1*
X926323Y1155427D1*
X922845Y1153102D1*
X922857Y1114987D1*
X934497Y1114984D1*
X937252Y1120899D1*
X941025Y1127636D1*
X945315Y1134058D1*
X950096Y1140122D1*
X955337Y1145793D1*
X961008Y1151034D1*
X970108Y1157843D1*
X963878Y1164054D1*
X958744Y1171119D1*
X954778Y1178902D1*
X952080Y1187207D1*
X950714Y1195833D1*
Y1204568D1*
X952080Y1213194D1*
X954778Y1221500D1*
X958744Y1229282D1*
X963878Y1236348D1*
X970054Y1242524D1*
X977119Y1247657D1*
X981505Y1250058D1*
X973486Y1254921D1*
X966844Y1260593D1*
X961172Y1267235D1*
X956609Y1274681D1*
X953266Y1282751D1*
X951227Y1291243D1*
X950542Y1299950D1*
X951227Y1308657D1*
X953266Y1317150D1*
X956609Y1325219D1*
X961172Y1332665D1*
X966844Y1339307D1*
X968261Y1340617D1*
X963625Y1345417D1*
X958491Y1352483D1*
X954525Y1360265D1*
X951827Y1368571D1*
X950461Y1377197D1*
Y1385932D1*
X951827Y1394558D1*
X954525Y1402864D1*
X958491Y1410646D1*
X963625Y1417711D1*
X969801Y1423887D1*
X976866Y1429021D1*
X979442Y1430465D1*
X972982Y1434520D1*
X966340Y1440192D1*
X960668Y1446833D1*
X956105Y1454280D1*
X952762Y1462349D1*
X950723Y1470841D1*
X950038Y1479549D1*
X950723Y1488256D1*
X952762Y1496748D1*
X956105Y1504818D1*
X960668Y1512264D1*
X964451Y1516862D1*
X933854Y1516874D1*
X937374Y1512517D1*
X941937Y1505071D1*
X945280Y1497001D1*
X947319Y1488509D1*
X948004Y1479802D1*
X947319Y1471094D1*
X945280Y1462602D1*
X941937Y1454533D1*
X937374Y1447087D1*
X931702Y1440445D1*
X925060Y1434773D1*
X918940Y1430951D1*
X925060Y1427096D1*
X931702Y1421424D1*
X937374Y1414782D1*
X941937Y1407336D1*
X945280Y1399266D1*
X947319Y1390774D1*
X948004Y1382067D1*
X947319Y1373360D1*
X945280Y1364867D1*
X941937Y1356798D1*
X937374Y1349352D1*
X931702Y1342710D1*
X929885Y1341030D1*
X934920Y1335844D1*
X940054Y1328778D1*
X944020Y1320996D1*
X946718Y1312690D1*
X948084Y1304064D1*
Y1295329D1*
X1056972Y1177491D2*
X1053193Y1170424D1*
X1062517Y1167112D1*
X1071820Y1162596D1*
X1057635Y1176787D1*
X1030896Y1250058D2*
X1035282Y1247657D1*
X1042348Y1242524D1*
X1048524Y1236348D1*
X1053657Y1229282D1*
X1053983Y1228702D1*
X1053976Y1271423D1*
X1051230Y1267235D1*
X1045558Y1260593D1*
X1038916Y1254921D1*
X1031470Y1250358D1*
X1030896Y1250093D1*
X1043890Y1340848D2*
X1048524Y1336097D1*
X1053657Y1329031D1*
X1053983Y1328451D1*
X1054322Y1332291D1*
X1055339Y1335047D1*
X1056971Y1337491D1*
X1097713Y1378286D1*
X1097726Y1516839D1*
X1046962Y1516874D1*
X1050726Y1512264D1*
X1055289Y1504818D1*
X1058631Y1496748D1*
X1060671Y1488256D1*
X1061356Y1479549D1*
X1060671Y1470841D1*
X1058631Y1462349D1*
X1055289Y1454280D1*
X1050726Y1446833D1*
X1045054Y1440192D1*
X1038412Y1434520D1*
X1032202Y1430648D1*
X1038663Y1426593D1*
X1045304Y1420921D1*
X1050976Y1414280D1*
X1055539Y1406833D1*
X1058882Y1398764D1*
X1060921Y1390272D1*
X1061606Y1381564D1*
X1060921Y1372857D1*
X1058882Y1364365D1*
X1055539Y1356295D1*
X1050976Y1348849D1*
X1045304Y1342207D1*
X1043887Y1340898D1*
X857833Y1009365D2*
Y1013600D1*
X853996Y1009337D1*
X613816Y667671D2*
X613852Y779927D1*
X613816Y842919D1*
Y887686D1*
X608711Y888772D1*
X605068Y890281D1*
X601706Y892341D1*
X600151Y893568D1*
X597535Y893560D1*
X590997Y891436D1*
X584207Y890361D1*
X577333D1*
X570543Y891436D1*
X564005Y893560D1*
X557881Y896681D1*
X552319Y900722D1*
X547458Y905583D1*
X543417Y911144D1*
X540297Y917269D1*
X538172Y923807D1*
X537097Y930597D1*
Y937471D1*
X538172Y944261D1*
X540297Y950799D1*
X543417Y956924D1*
X547458Y962486D1*
X552319Y967346D1*
X557881Y971387D1*
X559604Y972352D1*
X556727Y978752D1*
X554531Y985760D1*
X553217Y992986D1*
X552799Y1000319D1*
X553289Y1007647D1*
X554676Y1014858D1*
X556940Y1021845D1*
X560047Y1028500D1*
X563949Y1034722D1*
X564619Y1035627D1*
X477917Y1035622D1*
X481907Y1030206D1*
X485469Y1023785D1*
X488155Y1016950D1*
X489919Y1009822D1*
X490727Y1002522D1*
X490509Y994550D1*
X489303Y987306D1*
X487154Y980283D1*
X484097Y973606D1*
X480189Y967388D1*
X475497Y961739D1*
X470101Y956757D1*
X464097Y952529D1*
X457588Y949129D1*
X450688Y946614D1*
X443517Y945030D1*
X436201Y944404D1*
X428865Y944747D1*
X421638Y946052D1*
X414646Y948298D1*
X410227Y950280D1*
X410226Y622571D1*
X415816Y625029D1*
X422854Y627122D1*
X430108Y628270D1*
X437450Y628454D1*
X444752Y627671D1*
X451886Y625932D1*
X458730Y623269D1*
X465164Y619727D1*
X471076Y615370D1*
X476362Y610273D1*
X480932Y604524D1*
X484705Y598223D1*
X487614Y591482D1*
X489612Y584415D1*
X490661Y577146D1*
X490707Y569171D1*
X489740Y561891D1*
X487823Y554802D1*
X484990Y548026D1*
X481289Y541684D1*
X476547Y535623D1*
X565822Y535709D1*
X561602Y541719D1*
X558154Y548205D1*
X555530Y555064D1*
X553772Y562196D1*
X552904Y569488D1*
X552940Y576832D1*
X553879Y584117D1*
X555709Y591230D1*
X558400Y598063D1*
X559619Y600510D1*
X555100Y603381D1*
X549871Y607845D1*
X545407Y613073D1*
X541815Y618934D1*
X539185Y625285D1*
X537580Y631970D1*
X537041Y638823D1*
X537580Y645676D1*
X539185Y652361D1*
X541815Y658711D1*
X545407Y664572D1*
X549871Y669801D1*
X555100Y674265D1*
X560961Y677857D1*
X567311Y680487D1*
X573996Y682092D1*
X580849Y682631D1*
X587702Y682092D1*
X594387Y680487D1*
X600738Y677857D1*
X606598Y674265D1*
X611827Y669801D1*
X613824Y667639D1*
X702022Y917097D2*
X705043Y919293D1*
X735227Y1237982D2*
D23*
Y1158265D1*
X693400Y1198123D2*
X735227D1*
X966877Y507332D2*
Y481117D1*
Y507332D2*
X1003092D1*
X966877Y566387D2*
X1003092D1*
X966877Y625442D2*
X1003092D1*
X966877Y684497D2*
X1003092D1*
X930661Y743552D2*
X1003092D1*
X930661Y822293D2*
X1003092D1*
X1047877Y948340D2*
Y890667D1*
X971705Y948340D2*
X1047877D1*
Y498013D2*
Y440340D1*
X971703D2*
X1047877D1*
X910224Y479374D2*
X952898D1*
X657647Y644954D2*
Y620253D1*
X613852Y692198D2*
X657647D1*
X613852Y739442D2*
X657647D1*
X613852Y786686D2*
X657647D1*
X613852Y833930D2*
X657647D1*
X552844Y572867D2*
X671888D1*
X552835Y1000025D2*
X671879D1*
X435123Y1000052D2*
Y944429D1*
Y1000052D2*
X490747D1*
X435169Y628466D2*
Y572843D1*
X490793D1*
D28*
X841475Y479374D3*
D29*
X2826469Y2669833D3*
D30*
X1644707Y2085563D3*
Y2152492D3*
D31*
X1601469Y2388584D3*
X1534539D3*
X1751514Y2895241D3*
X1818444D3*
X2251469Y2032335D3*
X2184539D3*
X735227Y1198123D3*
X802156D3*
X1695219Y2026084D3*
X1762148D3*
D30*
X1681951Y2758717D3*
Y2825646D3*
D34*
X2145218Y1544833D3*
D35*
X2045218D3*
X1945218D3*
X1845218D3*
X1745218D3*
X1645218D3*
D36*
X2812451Y2812450D3*
X2792751Y2812551D3*
X2773052D3*
X2753352D3*
X2733752D3*
X2714051D3*
X2694350D3*
X2674652D3*
X2654951D3*
X2635251D3*
X2615652D3*
X2595951D3*
X2576252D3*
X2556551D3*
X2536850D3*
X2517152D3*
X2497451D3*
X2832152D3*
X2477850D3*
X2851850D3*
D37*
X2917551Y2879450D3*
X2412052D3*
D150*
X966877Y507332D3*
Y527017D3*
Y546702D3*
Y566387D3*
Y586072D3*
Y605757D3*
Y625442D3*
Y645127D3*
Y664812D3*
Y684497D3*
Y704182D3*
Y723867D3*
Y743552D3*
Y763238D3*
Y782923D3*
Y802608D3*
Y822293D3*
Y841978D3*
Y861663D3*
Y881348D3*
D39*
X1047877Y948340D3*
Y440340D3*
D40*
X1312452Y1893701D3*
X1412452D3*
D41*
X778976Y629373D3*
Y649073D3*
Y688472D3*
Y708173D3*
X740777Y629373D3*
Y649073D3*
Y688472D3*
Y708173D3*
D42*
X778976Y668773D3*
X740777D3*
D41*
X778976Y754374D3*
Y774075D3*
Y813474D3*
Y833175D3*
X740777Y754374D3*
Y774075D3*
Y813474D3*
Y833175D3*
D42*
X778976Y793774D3*
X740777D3*
D41*
X778976Y879373D3*
Y899073D3*
Y938472D3*
Y958173D3*
X740777Y879373D3*
Y899073D3*
Y938472D3*
Y958173D3*
D42*
X778976Y918773D3*
X740777D3*
D29*
X2738969Y2669833D3*
D28*
X910224Y479374D3*
D29*
X2913967Y2669833D3*
D43*
X1075694Y2089077D3*
D44*
X978765Y2286873D3*
D45*
X957584Y1971912D3*
Y1578211D3*
Y1656951D3*
Y1814432D3*
Y2050652D3*
Y1735692D3*
Y1893172D3*
Y2129392D3*
X859159Y1578211D3*
Y1656951D3*
Y1735692D3*
Y1814432D3*
Y1893172D3*
Y1971912D3*
Y2050652D3*
Y2129392D3*
Y2208133D3*
D43*
X1076469Y1619835D3*
D46*
X892597Y1299697D3*
X892345Y1382067D3*
Y1479802D3*
X1006201Y1200201D3*
Y1299950D3*
X1005948Y1381564D3*
X1005697Y1479549D3*
X893608Y1200455D3*
D30*
X2326469Y2038584D3*
Y2105513D3*
D31*
X2057719Y2032335D3*
X2124648D3*
X1750678Y2820340D3*
X1817608D3*
X835227Y866874D3*
X902156D3*
D30*
X897727Y1073122D3*
Y1006193D3*
D31*
X916476Y941871D3*
X849547D3*
D40*
X1312453Y1943700D3*
X1412453D3*
X1312451Y2043700D3*
X1312453Y1993700D3*
X1412451Y2043700D3*
X1412453Y1993700D3*
D47*
X440004Y1605307D3*
Y1756882D3*
X497091Y1605307D3*
Y1756882D3*
D48*
X436067Y1601370D3*
Y1760819D3*
D28*
X785227Y554374D3*
D49*
X1740316Y2120232D3*
X1760017D3*
X1779618D3*
X1799316D3*
X1819017D3*
X1838717D3*
X1858419D3*
X1878117D3*
X1897816D3*
X1917417D3*
X1937118D3*
X1956816D3*
X1976517D3*
X1996218D3*
X2015919D3*
X2035617D3*
X2055217D3*
X2074917D3*
X2094617D3*
X2114316D3*
X2134017D3*
X2153718D3*
X2173417D3*
X2193017D3*
X2212717D3*
X1740316Y2742332D3*
X1760017D3*
X1779618D3*
X1799316D3*
X1819017D3*
X1838717D3*
X1858419D3*
X1878117D3*
X1897816D3*
X1917417D3*
X1937118D3*
X1956816D3*
X1976517D3*
X1996218D3*
X2015919D3*
X2035617D3*
X2055217D3*
X2074917D3*
X2094617D3*
X2114316D3*
X2134017D3*
X2153718D3*
X2173417D3*
X2193017D3*
X2212717D3*
D50*
X2287517Y2195033D3*
Y2214734D3*
Y2234430D3*
Y2254133D3*
Y2273833D3*
Y2293530D3*
Y2313231D3*
Y2332832D3*
Y2352533D3*
Y2372231D3*
Y2391932D3*
Y2411633D3*
Y2431333D3*
Y2451030D3*
Y2470631D3*
Y2490332D3*
Y2510030D3*
Y2529731D3*
Y2549432D3*
Y2569133D3*
Y2588734D3*
Y2608430D3*
Y2628131D3*
Y2647833D3*
Y2667530D3*
X1665517Y2195033D3*
Y2214734D3*
Y2234430D3*
Y2254133D3*
Y2273833D3*
Y2293530D3*
Y2313231D3*
Y2332832D3*
Y2352533D3*
Y2372231D3*
Y2391932D3*
Y2411633D3*
Y2431333D3*
Y2451030D3*
Y2470631D3*
Y2490332D3*
Y2510030D3*
Y2529731D3*
Y2549432D3*
Y2569133D3*
Y2588734D3*
Y2608430D3*
Y2628131D3*
Y2647833D3*
Y2667530D3*
D51*
X1657718Y2901084D3*
X1695217D3*
D53*
X1948332Y1967223D3*
Y1941623D3*
Y1916024D3*
Y1890522D3*
X2121531Y1967223D3*
Y1941623D3*
Y1916024D3*
Y1890522D3*
D55*
X2145627Y1656608D3*
Y1706608D3*
Y1756608D3*
Y1806608D3*
X1933026Y1656608D3*
Y1706608D3*
Y1756608D3*
Y1806608D3*
D56*
X657647Y644954D3*
Y660702D3*
Y676450D3*
Y692198D3*
Y707946D3*
Y723694D3*
Y739442D3*
Y755190D3*
Y770938D3*
Y786686D3*
Y802434D3*
Y818182D3*
Y833930D3*
Y849678D3*
Y865427D3*
Y881175D3*
Y896923D3*
Y912671D3*
Y928419D3*
D57*
X612366Y572867D3*
X612357Y1000025D3*
D58*
X580770Y934034D3*
X580849Y638823D3*
D46*
X435123Y1000052D3*
X435169Y572843D3*
D59*
X464434Y2032837D3*
D60*
X562860D3*
Y1963940D3*
Y1895042D3*
D61*
X1330213Y3029252D3*
X1380213D3*
X1430213D3*
X1480213D3*
X1530213D3*
X1580213D3*
X1630213D3*
X1680213D3*
X1730213D3*
X1780213D3*
X1830213D3*
X1880213D3*
X1930213D3*
X1980213D3*
Y3068622D3*
X1930213D3*
X1880213D3*
X1830213D3*
X1780213D3*
X1730213D3*
X1680213D3*
X1630213D3*
X1580213D3*
X1530213D3*
X1480213D3*
X1430213D3*
X1380213D3*
X1330213D3*
M02*
