G04 DipTrace 3.3.1.1*
G04 TopPaste.gtp*
%MOIN*%
G04 #@! TF.FileFunction,Paste,Top*
G04 #@! TF.Part,Single*
%AMOUTLINE0*
4,1,4,
0.016,-0.006,
-0.016,-0.006,
-0.016,0.006,
0.016,0.006,
0.016,-0.006,
0*%
%ADD28R,0.045X0.045*%
%ADD29R,0.065X0.065*%
%ADD36R,0.011801X0.043301*%
%ADD37R,0.0906X0.122*%
%ADD39R,0.112X0.075*%
%ADD41R,0.0295X0.011801*%
%ADD42R,0.0295X0.015699*%
%ADD49R,0.011X0.0591*%
%ADD50R,0.0591X0.011*%
%ADD51R,0.031496X0.03937*%
%ADD53R,0.0571X0.017699*%
%ADD55R,0.061X0.0236*%
%ADD102R,0.03937X0.001181*%
%ADD139R,0.035433X0.031496*%
%ADD141R,0.031496X0.035433*%
%ADD150OUTLINE0*%
%FSLAX26Y26*%
G04*
G70*
G90*
G75*
G01*
G04 TopPaste*
%LPD*%
D28*
X841475Y479374D3*
D29*
X2826469Y2669833D3*
D141*
X1644707Y2085563D3*
Y2152492D3*
D139*
X1601469Y2388584D3*
X1534539D3*
X1751514Y2895241D3*
X1818444D3*
X2251469Y2032335D3*
X2184539D3*
X735227Y1198123D3*
X802156D3*
X1695219Y2026084D3*
X1762148D3*
D141*
X1681951Y2758717D3*
Y2825646D3*
D36*
X2812451Y2812450D3*
X2792751Y2812551D3*
X2773052D3*
X2753352D3*
X2733752D3*
X2714051D3*
X2694350D3*
X2674652D3*
X2654951D3*
X2635251D3*
X2615652D3*
X2595951D3*
X2576252D3*
X2556551D3*
X2536850D3*
X2517152D3*
X2497451D3*
X2832152D3*
X2477850D3*
X2851850D3*
D37*
X2917551Y2879450D3*
X2412052D3*
D150*
X966877Y507332D3*
Y527017D3*
Y546702D3*
Y566387D3*
Y586072D3*
Y605757D3*
Y625442D3*
Y645127D3*
Y664812D3*
Y684497D3*
Y704182D3*
Y723867D3*
Y743552D3*
Y763238D3*
Y782923D3*
Y802608D3*
Y822293D3*
Y841978D3*
Y861663D3*
Y881348D3*
D39*
X1047877Y948340D3*
Y440340D3*
D41*
X778976Y629373D3*
Y649073D3*
Y688472D3*
Y708173D3*
X740777Y629373D3*
Y649073D3*
Y688472D3*
Y708173D3*
D42*
X778976Y668773D3*
X740777D3*
D41*
X778976Y754374D3*
Y774075D3*
Y813474D3*
Y833175D3*
X740777Y754374D3*
Y774075D3*
Y813474D3*
Y833175D3*
D42*
X778976Y793774D3*
X740777D3*
D41*
X778976Y879373D3*
Y899073D3*
Y938472D3*
Y958173D3*
X740777Y879373D3*
Y899073D3*
Y938472D3*
Y958173D3*
D42*
X778976Y918773D3*
X740777D3*
D29*
X2738969Y2669833D3*
D28*
X910224Y479374D3*
D29*
X2913967Y2669833D3*
D141*
X2326469Y2038584D3*
Y2105513D3*
D139*
X2057719Y2032335D3*
X2124648D3*
X1750678Y2820340D3*
X1817608D3*
X835227Y866874D3*
X902156D3*
D141*
X897727Y1073122D3*
Y1006193D3*
D139*
X916476Y941871D3*
X849547D3*
D28*
X785227Y554374D3*
D49*
X1740316Y2120232D3*
X1760017D3*
X1779618D3*
X1799316D3*
X1819017D3*
X1838717D3*
X1858419D3*
X1878117D3*
X1897816D3*
X1917417D3*
X1937118D3*
X1956816D3*
X1976517D3*
X1996218D3*
X2015919D3*
X2035617D3*
X2055217D3*
X2074917D3*
X2094617D3*
X2114316D3*
X2134017D3*
X2153718D3*
X2173417D3*
X2193017D3*
X2212717D3*
X1740316Y2742332D3*
X1760017D3*
X1779618D3*
X1799316D3*
X1819017D3*
X1838717D3*
X1858419D3*
X1878117D3*
X1897816D3*
X1917417D3*
X1937118D3*
X1956816D3*
X1976517D3*
X1996218D3*
X2015919D3*
X2035617D3*
X2055217D3*
X2074917D3*
X2094617D3*
X2114316D3*
X2134017D3*
X2153718D3*
X2173417D3*
X2193017D3*
X2212717D3*
D50*
X2287517Y2195033D3*
Y2214734D3*
Y2234430D3*
Y2254133D3*
Y2273833D3*
Y2293530D3*
Y2313231D3*
Y2332832D3*
Y2352533D3*
Y2372231D3*
Y2391932D3*
Y2411633D3*
Y2431333D3*
Y2451030D3*
Y2470631D3*
Y2490332D3*
Y2510030D3*
Y2529731D3*
Y2549432D3*
Y2569133D3*
Y2588734D3*
Y2608430D3*
Y2628131D3*
Y2647833D3*
Y2667530D3*
X1665517Y2195033D3*
Y2214734D3*
Y2234430D3*
Y2254133D3*
Y2273833D3*
Y2293530D3*
Y2313231D3*
Y2332832D3*
Y2352533D3*
Y2372231D3*
Y2391932D3*
Y2411633D3*
Y2431333D3*
Y2451030D3*
Y2470631D3*
Y2490332D3*
Y2510030D3*
Y2529731D3*
Y2549432D3*
Y2569133D3*
Y2588734D3*
Y2608430D3*
Y2628131D3*
Y2647833D3*
Y2667530D3*
D51*
X1657718Y2901084D3*
X1695217D3*
D53*
X1948332Y1967223D3*
Y1941623D3*
Y1916024D3*
Y1890522D3*
X2121531Y1967223D3*
Y1941623D3*
Y1916024D3*
Y1890522D3*
D55*
X2145627Y1656608D3*
Y1706608D3*
Y1756608D3*
Y1806608D3*
X1933026Y1656608D3*
Y1706608D3*
Y1756608D3*
Y1806608D3*
D102*
X657647Y644954D3*
Y660702D3*
Y676450D3*
Y692198D3*
Y707946D3*
Y723694D3*
Y739442D3*
Y755190D3*
Y770938D3*
Y786686D3*
Y802434D3*
Y818182D3*
Y833930D3*
Y849678D3*
Y865427D3*
Y881175D3*
Y896923D3*
Y912671D3*
Y928419D3*
M02*
