G04 DipTrace 3.3.1.1*
G04 Bottom.gbl*
%MOMM*%
G04 #@! TF.FileFunction,Copper,L2,Bot*
G04 #@! TF.Part,Single*
G04 #@! TA.AperFunction,Conductor*
%ADD13C,0.1778*%
G04 #@! TA.AperFunction,CopperBalancing*
%ADD14C,0.2*%
%ADD15C,0.23*%
G04 #@! TA.AperFunction,ComponentPad*
%ADD17C,0.37*%
%ADD18C,1.0*%
%ADD19R,1.0X0.37*%
%ADD20R,0.37X1.0*%
G04 #@! TA.AperFunction,ViaPad*
%ADD21C,0.37*%
%FSLAX35Y35*%
G04*
G71*
G90*
G75*
G01*
G04 Bottom*
%LPD*%
X3390007Y4635000D2*
D13*
X3410000D1*
X3461250D1*
X3476623Y4619627D1*
Y4587873D1*
X3540123Y4524373D1*
X3762377D1*
X3841750Y4445000D1*
Y4079873D1*
X3952873Y3968750D1*
Y3556000D1*
X3921127D2*
Y3952873D1*
X3810000Y4064000D1*
Y4429127D1*
X3746500Y4492627D1*
X3508373D1*
X3465533Y4535467D1*
X3414000D1*
Y4535000D1*
X3390007D1*
Y4435000D2*
X3415000D1*
X3514250D1*
X3524250Y4445000D1*
X3746500D1*
X3778250Y4413250D1*
Y4048123D1*
X3889373Y3937000D1*
Y3730623D1*
X3714750Y3556000D1*
X3120003Y3615000D2*
X3119973Y3592000D1*
Y3547527D1*
X3070003Y3615000D2*
X3069973Y3591000D1*
Y3546223D1*
X2920003Y3615000D2*
X2919973Y3590000D1*
Y3541153D1*
X2820003Y3615000D2*
X2819973Y3590000D1*
Y3545903D1*
X2820000Y3590000D2*
X2819973D1*
X2920000D2*
X2919973D1*
X3070000Y3591000D2*
X3069973D1*
X3120000Y3592000D2*
X3119973D1*
X3410000Y4635000D2*
D3*
X3415000Y4435000D2*
D3*
X3390007D2*
D3*
Y4535000D2*
D3*
Y4635000D2*
D3*
X3120000Y3614997D2*
X3120003Y3615000D1*
X3070000Y3614997D2*
X3070003Y3615000D1*
X2920000Y3614997D2*
X2920003Y3615000D1*
X2820000Y3614997D2*
X2820003Y3615000D1*
X2083000Y3936000D2*
X2099000D1*
X2100000Y3935000D1*
X2043000D1*
X2028000Y3920000D1*
Y3791000D1*
X2100000Y3935000D2*
X2150000D1*
X2820003Y3615000D2*
Y3626003D1*
X2820250Y3626250D1*
Y3663750D1*
X2920003Y3615000D2*
Y3663530D1*
X2920250Y3663777D1*
X3070003Y3615000D2*
Y3663503D1*
X3070250Y3663750D1*
X3120003Y3615000D2*
Y3663503D1*
X3120250Y3663750D1*
X3390007Y4435000D2*
X3339000D1*
X3390007Y4535000D2*
X3339000D1*
X3390007Y4635000D2*
X3339000D1*
X3020000Y3591000D2*
Y3614997D1*
X3020003Y3615000D1*
Y3663503D1*
X3020250Y3663750D1*
X2970000Y3591000D2*
Y3614997D1*
X2970003Y3615000D1*
Y3663503D1*
X2970250Y3663750D1*
X2870000Y3590000D2*
Y3614997D1*
X2870003Y3615000D1*
Y3663503D1*
X2870250Y3663750D1*
X2720000Y3590000D2*
Y3614997D1*
X2720003Y3615000D1*
Y3663503D1*
X2720250Y3663750D1*
X2670000Y3591000D2*
Y3614997D1*
X2670003Y3615000D1*
Y3663530D1*
X2670250Y3663777D1*
X2620000Y3590000D2*
Y3614997D1*
X2620003Y3615000D1*
Y3663503D1*
X2620250Y3663750D1*
X2470000Y3591000D2*
Y3614997D1*
X2470003Y3615000D1*
Y3663503D1*
X2470250Y3663750D1*
X2420000Y3591000D2*
Y3614997D1*
X2420003Y3615000D1*
Y3663503D1*
X2420250Y3663750D1*
X2084000Y3885000D2*
X2100000D1*
X2150000D1*
X3415000Y4385000D2*
X3390007D1*
X3339000D1*
X3412000Y4585000D2*
X3390007D1*
X3339000D1*
X3414000Y4485000D2*
X3390007D1*
X3339000D1*
X2770000Y3591000D2*
Y3614997D1*
X2770003Y3615000D1*
Y3663503D1*
X2770250Y3663750D1*
X2520000Y3590000D2*
Y3614997D1*
X2520003Y3615000D1*
Y3663503D1*
X2520250Y3663750D1*
X2570000Y3590000D2*
Y3614997D1*
X2570003Y3615000D1*
Y3663503D1*
X2570250Y3663750D1*
X2370000Y3590000D2*
Y3614997D1*
X2370003Y3615000D1*
Y3663503D1*
X2370250Y3663750D1*
D21*
X2083000Y3936000D3*
X2084000Y3885000D3*
X2370000Y3590000D3*
X2420000Y3591000D3*
X2470000D3*
X2520000Y3590000D3*
X2570000D3*
X2620000D3*
X2670000Y3591000D3*
X2720000Y3590000D3*
X2770000Y3591000D3*
X2820000Y3590000D3*
X2870000D3*
X2920000D3*
X2970000Y3591000D3*
X3020000D3*
X3070000D3*
X3120000Y3592000D3*
X3410000Y4635000D3*
X3412000Y4585000D3*
X3414000Y4535000D3*
Y4485000D3*
X3415000Y4435000D3*
Y4385000D3*
X2081573Y3833243D2*
D14*
X2029903Y3781573D1*
X2097180Y3679143D2*
X1969857Y3551820D1*
X2185347Y3597603D2*
X1839427Y3251687D1*
X2326547Y3569100D2*
X1839413Y3081967D1*
X2467720Y3540567D2*
X2004823Y3077670D1*
X2637397Y3540537D2*
X2174530Y3077670D1*
X2807103Y3540537D2*
X2344237Y3077670D1*
X2976817Y3540547D2*
X2513923Y3077650D1*
X3202900Y3596923D2*
X3163383Y3557407D1*
X3146523Y3540547D2*
X2683627Y3077650D1*
X3337193Y3561510D2*
X2853333Y3077650D1*
X3506900Y3561510D2*
X3023040Y3077650D1*
X3676603Y3561510D2*
X3192747Y3077650D1*
X3846310Y3561510D2*
X3362450Y3077650D1*
X3954947Y3500440D2*
X3599637Y3145130D1*
X3954947Y3330737D2*
X3701863Y3077650D1*
X3954947Y3161030D2*
X3871567Y3077650D1*
X3814833Y3561503D2*
X3954947Y3421390D1*
X3645127Y3561503D2*
X3954947Y3251687D1*
X3475423Y3561503D2*
X3954947Y3081980D1*
X3305717Y3561503D2*
X3789550Y3077670D1*
X3156977Y3540537D2*
X3516013Y3181500D1*
X3606843Y3090670D2*
X3619843Y3077670D1*
X2987270Y3540537D2*
X3450137Y3077670D1*
X2817557Y3540547D2*
X3280450Y3077650D1*
X2647850Y3540547D2*
X3110747Y3077650D1*
X2478143Y3540547D2*
X2941040Y3077650D1*
X2029903Y3819080D2*
X2081573Y3767413D1*
X2251427Y3597557D2*
X2771333Y3077650D1*
X2029903Y3649377D2*
X2601627Y3077650D1*
X1966377Y3543200D2*
X2431923Y3077650D1*
X1902737Y3437133D2*
X2262217Y3077650D1*
X1839427Y3330737D2*
X2092510Y3077650D1*
X1839427Y3161030D2*
X1922807Y3077650D1*
X3607233Y3106423D2*
X3606580Y3098453D1*
X3605067Y3090603D1*
X3602710Y3082963D1*
X3599837Y3076250D1*
X3956400D1*
X3956373Y3562930D1*
X3237300Y3562927D1*
Y3598277D1*
X3161933Y3598367D1*
X3161970Y3541967D1*
X2927970D1*
X2777970Y3542007D1*
X2627970Y3541967D1*
X2477970Y3542007D1*
X2327970Y3541967D1*
Y3598880D1*
X2181467Y3599137D1*
X2178490Y3600107D1*
X2175960Y3601950D1*
X2084863Y3694717D1*
X2083463Y3697513D1*
X2083023Y3699827D1*
X2083000Y3843457D1*
X2028517Y3843467D1*
X2028377Y3651713D1*
X2027410Y3648733D1*
X1838017Y3333037D1*
X1838000Y3076250D1*
X3467650D1*
X3464440Y3083990D1*
X3462197Y3091663D1*
X3460800Y3099537D1*
X3460267Y3107517D1*
X3460603Y3115507D1*
X3461803Y3123410D1*
X3463857Y3131137D1*
X3466740Y3138597D1*
X3470413Y3145700D1*
X3474837Y3152360D1*
X3479960Y3158500D1*
X3485717Y3164047D1*
X3492043Y3168937D1*
X3498863Y3173110D1*
X3506097Y3176520D1*
X3513660Y3179120D1*
X3521457Y3180887D1*
X3529403Y3181793D1*
X3537397Y3181833D1*
X3545350Y3181003D1*
X3553167Y3179317D1*
X3560753Y3176787D1*
X3568020Y3173450D1*
X3574880Y3169343D1*
X3581253Y3164517D1*
X3587067Y3159027D1*
X3592250Y3152937D1*
X3596737Y3146320D1*
X3600480Y3139253D1*
X3603437Y3131823D1*
X3605567Y3124117D1*
X3606847Y3116223D1*
X3607260Y3108423D1*
X3607233Y3106423D1*
X3533760Y3181883D2*
D15*
Y3108423D1*
X3460300D2*
X3607220D1*
X2819970Y3615467D2*
Y3542007D1*
X2919970Y3615467D2*
Y3542007D1*
X3069970Y3615467D2*
Y3542007D1*
X3119970Y3615467D2*
Y3542007D1*
D17*
X2150000Y3935000D3*
Y3885000D3*
X2370250Y3663750D3*
X2420250D3*
X2470250D3*
X2520250D3*
X2570250D3*
X2620250D3*
X2670250Y3663777D3*
X2720250Y3663750D3*
X2770250D3*
X2820250D3*
X2870250D3*
X2920250Y3663777D3*
D18*
X3533760Y3108423D3*
D17*
X2970250Y3663750D3*
X3020250D3*
X3070250D3*
X3120250D3*
X3339000Y4385000D3*
Y4435000D3*
Y4485000D3*
Y4535000D3*
Y4585000D3*
Y4635000D3*
D19*
X2100000Y3935000D3*
Y3885000D3*
D20*
X2370003Y3615000D3*
X2420003D3*
X2470003D3*
X2520003D3*
X2570003D3*
X2620003D3*
X2670003D3*
X2720003D3*
X2770003D3*
X2820003D3*
X2870003D3*
X2920003D3*
X2970003D3*
X3020003D3*
X3070003D3*
X3120003D3*
D19*
X3390007Y4385000D3*
Y4435000D3*
Y4485000D3*
Y4535000D3*
Y4585000D3*
Y4635000D3*
M02*
