M48
METRIC,0000.00
T01C0.254
T02C0.3
%
T01
X+002150Y+003935
X+002150Y+003885
X+002370Y+003664
X+002420Y+003664
X+002470Y+003664
X+002520Y+003664
X+002570Y+003664
X+002620Y+003664
X+002670Y+003664
X+002720Y+003664
X+002770Y+003664
X+002820Y+003664
X+002870Y+003664
X+002920Y+003664
T02
X+003534Y+003108
T01
X+002970Y+003664
X+003020Y+003664
X+003070Y+003664
X+003120Y+003664
X+003339Y+004385
X+003339Y+004435
X+003339Y+004485
X+003339Y+004535
X+003339Y+004585
X+003339Y+004635
X+002083Y+003936
X+002084Y+003885
X+002370Y+003590
X+002420Y+003591
X+002470Y+003591
X+002520Y+003590
X+002570Y+003590
X+002620Y+003590
X+002670Y+003591
X+002720Y+003590
X+002770Y+003591
X+002820Y+003590
X+002870Y+003590
X+002920Y+003590
X+002970Y+003591
X+003020Y+003591
X+003070Y+003591
X+003120Y+003592
X+003410Y+004635
X+003412Y+004585
X+003414Y+004535
X+003414Y+004485
X+003415Y+004435
X+003415Y+004385
T00
M30
