G04 DipTrace 3.3.1.1*
G04 Top.gtl*
%MOMM*%
G04 #@! TF.FileFunction,Copper,L1,Top*
G04 #@! TF.Part,Single*
G04 #@! TA.AperFunction,Conductor*
%ADD13C,0.1778*%
%ADD16R,1.1X1.0*%
G04 #@! TA.AperFunction,ComponentPad*
%ADD17C,0.37*%
%ADD18C,1.0*%
%ADD19R,1.0X0.37*%
%ADD20R,0.37X1.0*%
G04 #@! TA.AperFunction,ViaPad*
%ADD21C,0.37*%
%FSLAX35Y35*%
G04*
G71*
G90*
G75*
G01*
G04 Top*
%LPD*%
X2820000Y3590000D2*
D13*
Y3615000D1*
X2920000D2*
Y3608000D1*
Y3590000D1*
X3070000Y3591000D2*
Y3615000D1*
X3120000Y3592000D2*
Y3615000D1*
X2083000Y3936000D2*
X2099000D1*
X2100000Y3935000D1*
X3390000Y4435000D2*
X3415000D1*
X3390000Y4535000D2*
X3414000D1*
X3390000Y4635000D2*
X3410000D1*
X3025760Y3108423D2*
Y3165490D1*
X3019987Y3171263D1*
Y3591000D1*
X3020000D1*
Y3615000D1*
X2898760Y3108423D2*
X2902050D1*
X2969987Y3176360D1*
Y3591000D1*
X2970000D1*
Y3615000D1*
X2771760Y3108423D2*
Y3121007D1*
X2869987Y3219233D1*
Y3590000D1*
X2870000D1*
Y3615000D1*
X2644760Y3108423D2*
X2648047D1*
X2719987Y3180363D1*
Y3590000D1*
X2720000D1*
Y3615000D1*
X2517760Y3108423D2*
Y3152760D1*
X2555877Y3190877D1*
X2635253D1*
X2669987Y3225610D1*
Y3591000D1*
X2670000D1*
Y3615000D1*
X2390760Y3108423D2*
Y3168637D1*
X2444750Y3222627D1*
X2603503D1*
X2619987Y3239110D1*
Y3591000D1*
X2620000D1*
Y3615000D1*
Y3590000D2*
X2619987Y3591000D1*
X2620000Y3590000D2*
Y3615000D1*
X2263760Y3108423D2*
Y3133740D1*
X2222500Y3175000D1*
Y3444873D1*
X2238377Y3460750D1*
X2397123D1*
X2469987Y3533613D1*
Y3591000D1*
X2470000D1*
Y3615000D1*
X2136760Y3108423D2*
Y3343260D1*
X2174873Y3381373D1*
Y3476620D1*
X2206627Y3508373D1*
X2365373D1*
X2419987Y3562987D1*
Y3591000D1*
X2420000D1*
Y3615000D1*
X1882760Y3108423D2*
Y3216257D1*
X2079627Y3413123D1*
Y3885000D1*
X2100000D1*
X2084000D2*
X2079627D1*
X2084000D2*
X2100000D1*
X3152760Y3108423D2*
Y3152760D1*
X3508373Y3508373D1*
X3667120D1*
X3889373Y3730627D1*
Y3937003D1*
X3778250Y4048127D1*
Y4413250D1*
X3746500Y4445000D1*
X3524250D1*
X3464770Y4385520D1*
X3415000D1*
Y4385000D1*
X3390000D1*
Y4585000D2*
X3412000D1*
X3447747D1*
X3508373Y4524373D1*
X3762377D1*
X3841750Y4445000D1*
Y4079873D1*
X3952873Y3968750D1*
Y3460750D1*
X3841750Y3349627D1*
X3647963D1*
X3406760Y3108423D1*
X3412000Y4585000D2*
D3*
X3390000Y4485000D2*
X3414000D1*
X3469000D1*
X3476627Y4492627D1*
X3746500D1*
X3810000Y4429127D1*
Y4064000D1*
X3921127Y3952873D1*
Y3587753D1*
X3762373Y3429000D1*
X3540123D1*
X3279760Y3168637D1*
Y3108423D1*
X3414000Y4485000D2*
D3*
X2770000Y3591000D2*
Y3615000D1*
X2338250Y3317873D2*
Y3386003D1*
X2365373Y3413127D1*
X2460627D1*
X2519987Y3472487D1*
Y3590000D1*
X2520000D1*
Y3615000D1*
X2508250Y3317873D2*
X2571750Y3381373D1*
Y3590000D1*
Y3613250D1*
X2570000Y3615000D1*
Y3590000D2*
X2571750D1*
X2570000D2*
Y3615000D1*
X2009760Y3108423D2*
Y3279760D1*
X2143123Y3413123D1*
Y3492500D1*
X2190750Y3540127D1*
X2333627D1*
X2363223Y3569723D1*
X2370000Y3576500D1*
Y3615000D1*
Y3590000D2*
X2363223Y3569723D1*
X2370000Y3590000D2*
Y3615000D1*
D21*
X2083000Y3936000D3*
X2084000Y3885000D3*
X2370000Y3590000D3*
X2420000Y3591000D3*
X2470000D3*
X2520000Y3590000D3*
X2570000D3*
X2620000D3*
X2670000Y3591000D3*
X2720000Y3590000D3*
X2770000Y3591000D3*
X2820000Y3590000D3*
X2870000D3*
X2920000D3*
X2970000Y3591000D3*
X3020000D3*
X3070000D3*
X3120000Y3592000D3*
X3410000Y4635000D3*
X3412000Y4585000D3*
X3414000Y4535000D3*
Y4485000D3*
X3415000Y4435000D3*
Y4385000D3*
D16*
X2508250Y3317873D3*
X2338250D3*
D17*
X2150000Y3935000D3*
Y3885000D3*
X2370250Y3663750D3*
X2420250D3*
X2470250D3*
X2520250D3*
X2570250D3*
X2620250D3*
X2670250Y3663777D3*
X2720250Y3663750D3*
X2770250D3*
X2820250D3*
X2870250D3*
X2920250Y3663777D3*
D18*
X3533760Y3108423D3*
X3406760D3*
X3279760D3*
X3152760D3*
X3025760D3*
X2898760D3*
X2771760D3*
X2644760D3*
X2517760D3*
X2390760D3*
X2263760D3*
X2136760D3*
X2009760D3*
X1882760D3*
D17*
X2970250Y3663750D3*
X3020250D3*
X3070250D3*
X3120250D3*
X3339000Y4385000D3*
Y4435000D3*
Y4485000D3*
Y4535000D3*
Y4585000D3*
Y4635000D3*
D19*
X2100000Y3935000D3*
Y3885000D3*
D20*
X2370000Y3615000D3*
X2420000D3*
X2470000D3*
X2520000D3*
X2570000D3*
X2620000D3*
X2670000D3*
X2720000D3*
X2770000D3*
X2820000D3*
X2870000D3*
X2920000D3*
X2970000D3*
X3020000D3*
X3070000D3*
X3120000D3*
D19*
X3390000Y4385000D3*
Y4435000D3*
Y4485000D3*
Y4535000D3*
Y4585000D3*
Y4635000D3*
M02*
