G04 DipTrace 3.3.1.1*
G04 TopMask.gts*
%MOMM*%
G04 #@! TF.FileFunction,Soldermask,Top*
G04 #@! TF.Part,Single*
%ADD26R,0.57X1.2*%
%ADD28R,1.2X0.57*%
%ADD30C,1.2*%
%ADD32C,0.57*%
%ADD34R,1.3X1.2*%
%FSLAX35Y35*%
G04*
G71*
G90*
G75*
G01*
G04 TopMask*
%LPD*%
D34*
X2508250Y3317873D3*
X2338250D3*
D32*
X2150000Y3935000D3*
Y3885000D3*
X2370250Y3663750D3*
X2420250D3*
X2470250D3*
X2520250D3*
X2570250D3*
X2620250D3*
X2670250Y3663777D3*
X2720250Y3663750D3*
X2770250D3*
X2820250D3*
X2870250D3*
X2920250Y3663777D3*
D30*
X3533760Y3108423D3*
X3406760D3*
X3279760D3*
X3152760D3*
X3025760D3*
X2898760D3*
X2771760D3*
X2644760D3*
X2517760D3*
X2390760D3*
X2263760D3*
X2136760D3*
X2009760D3*
X1882760D3*
D32*
X2970250Y3663750D3*
X3020250D3*
X3070250D3*
X3120250D3*
X3339000Y4385000D3*
Y4435000D3*
Y4485000D3*
Y4535000D3*
Y4585000D3*
Y4635000D3*
D28*
X2100000Y3935000D3*
Y3885000D3*
D26*
X2370000Y3615000D3*
X2420000D3*
X2470000D3*
X2520000D3*
X2570000D3*
X2620000D3*
X2670000D3*
X2720000D3*
X2770000D3*
X2820000D3*
X2870000D3*
X2920000D3*
X2970000D3*
X3020000D3*
X3070000D3*
X3120000D3*
D28*
X3390000Y4385000D3*
Y4435000D3*
Y4485000D3*
Y4535000D3*
Y4585000D3*
Y4635000D3*
M02*
